<mxfile host="Electron" agent="Mozilla/5.0 (Windows NT 10.0; Win64; x64) AppleWebKit/537.36 (KHTML, like Gecko) draw.io/26.0.7 Chrome/128.0.6613.186 Electron/32.2.5 Safari/537.36" version="26.0.7">
  <diagram name="Страница — 1" id="hoSNKR339HeGntjZgRMv">
    <mxGraphModel dx="2868" dy="1688" grid="1" gridSize="10" guides="1" tooltips="1" connect="1" arrows="1" fold="1" page="1" pageScale="1" pageWidth="827" pageHeight="1169" math="0" shadow="0">
      <root>
        <mxCell id="0" />
        <mxCell id="1" parent="0" />
        <mxCell id="YYgHddTz2j56uieHM2Xs-1" value="Система 1 (sys1)" style="swimlane;fillColor=#fff2cc;strokeColor=#d6b656;" vertex="1" parent="1">
          <mxGeometry y="240" width="520" height="240" as="geometry" />
        </mxCell>
        <mxCell id="YYgHddTz2j56uieHM2Xs-2" value="Справочник товар - категория&lt;div&gt;(category)&lt;/div&gt;" style="swimlane;fontStyle=0;childLayout=stackLayout;horizontal=1;startSize=40;horizontalStack=0;resizeParent=1;resizeParentMax=0;resizeLast=0;collapsible=1;marginBottom=0;whiteSpace=wrap;html=1;fillColor=#d5e8d4;strokeColor=#82b366;" vertex="1" parent="YYgHddTz2j56uieHM2Xs-1">
          <mxGeometry x="40" y="40" width="220" height="160" as="geometry">
            <mxRectangle x="40" y="40" width="200" height="40" as="alternateBounds" />
          </mxGeometry>
        </mxCell>
        <mxCell id="YYgHddTz2j56uieHM2Xs-3" value="Номер товара" style="text;strokeColor=none;fillColor=none;align=left;verticalAlign=middle;spacingLeft=4;spacingRight=4;overflow=hidden;points=[[0,0.5],[1,0.5]];portConstraint=eastwest;rotatable=0;whiteSpace=wrap;html=1;" vertex="1" parent="YYgHddTz2j56uieHM2Xs-2">
          <mxGeometry y="40" width="220" height="30" as="geometry" />
        </mxCell>
        <mxCell id="YYgHddTz2j56uieHM2Xs-4" value="Название товара" style="text;strokeColor=none;fillColor=none;align=left;verticalAlign=middle;spacingLeft=4;spacingRight=4;overflow=hidden;points=[[0,0.5],[1,0.5]];portConstraint=eastwest;rotatable=0;whiteSpace=wrap;html=1;" vertex="1" parent="YYgHddTz2j56uieHM2Xs-2">
          <mxGeometry y="70" width="220" height="30" as="geometry" />
        </mxCell>
        <mxCell id="YYgHddTz2j56uieHM2Xs-5" value="Номер&amp;nbsp;категории" style="text;strokeColor=none;fillColor=none;align=left;verticalAlign=middle;spacingLeft=4;spacingRight=4;overflow=hidden;points=[[0,0.5],[1,0.5]];portConstraint=eastwest;rotatable=0;whiteSpace=wrap;html=1;" vertex="1" parent="YYgHddTz2j56uieHM2Xs-2">
          <mxGeometry y="100" width="220" height="30" as="geometry" />
        </mxCell>
        <mxCell id="YYgHddTz2j56uieHM2Xs-6" value="Название&amp;nbsp;категории" style="text;strokeColor=none;fillColor=none;align=left;verticalAlign=middle;spacingLeft=4;spacingRight=4;overflow=hidden;points=[[0,0.5],[1,0.5]];portConstraint=eastwest;rotatable=0;whiteSpace=wrap;html=1;" vertex="1" parent="YYgHddTz2j56uieHM2Xs-2">
          <mxGeometry y="130" width="220" height="30" as="geometry" />
        </mxCell>
        <mxCell id="YYgHddTz2j56uieHM2Xs-7" value="Таблица фактических продаж&lt;div&gt;(sales)&lt;/div&gt;" style="swimlane;fontStyle=0;childLayout=stackLayout;horizontal=1;startSize=40;horizontalStack=0;resizeParent=1;resizeParentMax=0;resizeLast=0;collapsible=1;marginBottom=0;whiteSpace=wrap;html=1;fillColor=#d5e8d4;strokeColor=#82b366;" vertex="1" parent="YYgHddTz2j56uieHM2Xs-1">
          <mxGeometry x="280" y="40" width="220" height="160" as="geometry">
            <mxRectangle x="280" y="40" width="200" height="40" as="alternateBounds" />
          </mxGeometry>
        </mxCell>
        <mxCell id="YYgHddTz2j56uieHM2Xs-8" value="Дата" style="text;strokeColor=none;fillColor=none;align=left;verticalAlign=middle;spacingLeft=4;spacingRight=4;overflow=hidden;points=[[0,0.5],[1,0.5]];portConstraint=eastwest;rotatable=0;whiteSpace=wrap;html=1;" vertex="1" parent="YYgHddTz2j56uieHM2Xs-7">
          <mxGeometry y="40" width="220" height="30" as="geometry" />
        </mxCell>
        <mxCell id="YYgHddTz2j56uieHM2Xs-9" value="Номер товара" style="text;strokeColor=none;fillColor=none;align=left;verticalAlign=middle;spacingLeft=4;spacingRight=4;overflow=hidden;points=[[0,0.5],[1,0.5]];portConstraint=eastwest;rotatable=0;whiteSpace=wrap;html=1;" vertex="1" parent="YYgHddTz2j56uieHM2Xs-7">
          <mxGeometry y="70" width="220" height="30" as="geometry" />
        </mxCell>
        <mxCell id="YYgHddTz2j56uieHM2Xs-10" value="Номер заказа" style="text;strokeColor=none;fillColor=none;align=left;verticalAlign=middle;spacingLeft=4;spacingRight=4;overflow=hidden;points=[[0,0.5],[1,0.5]];portConstraint=eastwest;rotatable=0;whiteSpace=wrap;html=1;" vertex="1" parent="YYgHddTz2j56uieHM2Xs-7">
          <mxGeometry y="100" width="220" height="30" as="geometry" />
        </mxCell>
        <mxCell id="YYgHddTz2j56uieHM2Xs-11" value="Сумма продажи" style="text;strokeColor=none;fillColor=none;align=left;verticalAlign=middle;spacingLeft=4;spacingRight=4;overflow=hidden;points=[[0,0.5],[1,0.5]];portConstraint=eastwest;rotatable=0;whiteSpace=wrap;html=1;" vertex="1" parent="YYgHddTz2j56uieHM2Xs-7">
          <mxGeometry y="130" width="220" height="30" as="geometry" />
        </mxCell>
        <mxCell id="YYgHddTz2j56uieHM2Xs-12" value="Система 2 (sys2)" style="swimlane;fillColor=#dae8fc;strokeColor=#6c8ebf;" vertex="1" parent="1">
          <mxGeometry y="520" width="520" height="200" as="geometry" />
        </mxCell>
        <mxCell id="YYgHddTz2j56uieHM2Xs-13" value="Таблица с рекламными вложениями продавцов (&lt;span style=&quot;background-color: transparent; color: light-dark(rgb(0, 0, 0), rgb(255, 255, 255));&quot;&gt;marketing)&lt;/span&gt;" style="swimlane;fontStyle=0;childLayout=stackLayout;horizontal=1;startSize=40;horizontalStack=0;resizeParent=1;resizeParentMax=0;resizeLast=0;collapsible=1;marginBottom=0;whiteSpace=wrap;html=1;fillColor=#dae8fc;strokeColor=#6c8ebf;" vertex="1" parent="YYgHddTz2j56uieHM2Xs-12">
          <mxGeometry x="160" y="40" width="220" height="130" as="geometry">
            <mxRectangle x="160" y="40" width="200" height="40" as="alternateBounds" />
          </mxGeometry>
        </mxCell>
        <mxCell id="YYgHddTz2j56uieHM2Xs-14" value="Дата" style="text;strokeColor=none;fillColor=none;align=left;verticalAlign=middle;spacingLeft=4;spacingRight=4;overflow=hidden;points=[[0,0.5],[1,0.5]];portConstraint=eastwest;rotatable=0;whiteSpace=wrap;html=1;" vertex="1" parent="YYgHddTz2j56uieHM2Xs-13">
          <mxGeometry y="40" width="220" height="30" as="geometry" />
        </mxCell>
        <mxCell id="YYgHddTz2j56uieHM2Xs-15" value="Номер товара" style="text;strokeColor=none;fillColor=none;align=left;verticalAlign=middle;spacingLeft=4;spacingRight=4;overflow=hidden;points=[[0,0.5],[1,0.5]];portConstraint=eastwest;rotatable=0;whiteSpace=wrap;html=1;" vertex="1" parent="YYgHddTz2j56uieHM2Xs-13">
          <mxGeometry y="70" width="220" height="30" as="geometry" />
        </mxCell>
        <mxCell id="YYgHddTz2j56uieHM2Xs-16" value="Сумма рекламы" style="text;strokeColor=none;fillColor=none;align=left;verticalAlign=middle;spacingLeft=4;spacingRight=4;overflow=hidden;points=[[0,0.5],[1,0.5]];portConstraint=eastwest;rotatable=0;whiteSpace=wrap;html=1;" vertex="1" parent="YYgHddTz2j56uieHM2Xs-13">
          <mxGeometry y="100" width="220" height="30" as="geometry" />
        </mxCell>
        <mxCell id="YYgHddTz2j56uieHM2Xs-17" value="Система 3 (sys3)" style="swimlane;fillColor=#e1d5e7;strokeColor=#9673a6;" vertex="1" parent="1">
          <mxGeometry x="600" y="240" width="1400" height="1280" as="geometry" />
        </mxCell>
        <mxCell id="YYgHddTz2j56uieHM2Xs-18" value="Stage (STG)" style="swimlane;horizontal=0;whiteSpace=wrap;html=1;fillColor=#f5f5f5;fontColor=#333333;strokeColor=#666666;" vertex="1" parent="YYgHddTz2j56uieHM2Xs-17">
          <mxGeometry x="40" y="40" width="1320" height="220" as="geometry" />
        </mxCell>
        <mxCell id="YYgHddTz2j56uieHM2Xs-19" value="&lt;span style=&quot;font-weight: 400; text-wrap: wrap;&quot;&gt;Справочник товар&lt;/span&gt;&lt;b&gt;&lt;span style=&quot;font-size:12.0pt;mso-bidi-font-size:&lt;br/&gt;11.0pt;line-height:150%;font-family:&amp;quot;Times New Roman&amp;quot;,serif;mso-fareast-font-family:&lt;br/&gt;Calibri;mso-fareast-theme-font:minor-latin;mso-bidi-theme-font:minor-bidi;&lt;br/&gt;mso-ansi-language:RU;mso-fareast-language:EN-US;mso-bidi-language:AR-SA&quot;&gt;&amp;nbsp;&lt;/span&gt;&lt;/b&gt;&lt;span style=&quot;font-weight: 400; text-wrap: wrap;&quot;&gt;-&lt;/span&gt;&lt;b&gt;&lt;span style=&quot;font-size:12.0pt;mso-bidi-font-size:&lt;br/&gt;11.0pt;line-height:150%;font-family:&amp;quot;Times New Roman&amp;quot;,serif;mso-fareast-font-family:&lt;br/&gt;Calibri;mso-fareast-theme-font:minor-latin;mso-bidi-theme-font:minor-bidi;&lt;br/&gt;mso-ansi-language:RU;mso-fareast-language:EN-US;mso-bidi-language:AR-SA&quot;&gt;&amp;nbsp;&lt;/span&gt;&lt;/b&gt;&lt;span style=&quot;font-weight: 400; text-wrap: wrap;&quot;&gt;категория&amp;nbsp;&lt;/span&gt;&lt;span style=&quot;font-weight: 400; text-wrap: wrap; background-color: transparent; color: light-dark(rgb(0, 0, 0), rgb(255, 255, 255));&quot;&gt;(stg_category)&lt;/span&gt;" style="shape=table;startSize=40;container=1;collapsible=1;childLayout=tableLayout;fixedRows=1;rowLines=0;fontStyle=1;align=center;resizeLast=1;html=1;fillColor=#e1d5e7;strokeColor=#9673a6;" vertex="1" parent="YYgHddTz2j56uieHM2Xs-18">
          <mxGeometry x="60" y="20" width="200" height="160" as="geometry">
            <mxRectangle x="1420" y="1000" width="180" height="30" as="alternateBounds" />
          </mxGeometry>
        </mxCell>
        <mxCell id="YYgHddTz2j56uieHM2Xs-20" value="" style="shape=tableRow;horizontal=0;startSize=0;swimlaneHead=0;swimlaneBody=0;fillColor=none;collapsible=0;dropTarget=0;points=[[0,0.5],[1,0.5]];portConstraint=eastwest;top=0;left=0;right=0;bottom=1;" vertex="1" parent="YYgHddTz2j56uieHM2Xs-19">
          <mxGeometry y="40" width="200" height="30" as="geometry" />
        </mxCell>
        <mxCell id="YYgHddTz2j56uieHM2Xs-21" value="PK" style="shape=partialRectangle;connectable=0;fillColor=none;top=0;left=0;bottom=0;right=0;fontStyle=1;overflow=hidden;whiteSpace=wrap;html=1;" vertex="1" parent="YYgHddTz2j56uieHM2Xs-20">
          <mxGeometry width="30" height="30" as="geometry">
            <mxRectangle width="30" height="30" as="alternateBounds" />
          </mxGeometry>
        </mxCell>
        <mxCell id="YYgHddTz2j56uieHM2Xs-22" value="Номер_товара" style="shape=partialRectangle;connectable=0;fillColor=none;top=0;left=0;bottom=0;right=0;align=left;spacingLeft=6;fontStyle=5;overflow=hidden;whiteSpace=wrap;html=1;" vertex="1" parent="YYgHddTz2j56uieHM2Xs-20">
          <mxGeometry x="30" width="170" height="30" as="geometry">
            <mxRectangle width="170" height="30" as="alternateBounds" />
          </mxGeometry>
        </mxCell>
        <mxCell id="YYgHddTz2j56uieHM2Xs-23" value="" style="shape=tableRow;horizontal=0;startSize=0;swimlaneHead=0;swimlaneBody=0;fillColor=none;collapsible=0;dropTarget=0;points=[[0,0.5],[1,0.5]];portConstraint=eastwest;top=0;left=0;right=0;bottom=0;" vertex="1" parent="YYgHddTz2j56uieHM2Xs-19">
          <mxGeometry y="70" width="200" height="30" as="geometry" />
        </mxCell>
        <mxCell id="YYgHddTz2j56uieHM2Xs-24" value="" style="shape=partialRectangle;connectable=0;fillColor=none;top=0;left=0;bottom=0;right=0;editable=1;overflow=hidden;whiteSpace=wrap;html=1;" vertex="1" parent="YYgHddTz2j56uieHM2Xs-23">
          <mxGeometry width="30" height="30" as="geometry">
            <mxRectangle width="30" height="30" as="alternateBounds" />
          </mxGeometry>
        </mxCell>
        <mxCell id="YYgHddTz2j56uieHM2Xs-25" value="Название_товара" style="shape=partialRectangle;connectable=0;fillColor=none;top=0;left=0;bottom=0;right=0;align=left;spacingLeft=6;overflow=hidden;whiteSpace=wrap;html=1;" vertex="1" parent="YYgHddTz2j56uieHM2Xs-23">
          <mxGeometry x="30" width="170" height="30" as="geometry">
            <mxRectangle width="170" height="30" as="alternateBounds" />
          </mxGeometry>
        </mxCell>
        <mxCell id="YYgHddTz2j56uieHM2Xs-26" value="" style="shape=tableRow;horizontal=0;startSize=0;swimlaneHead=0;swimlaneBody=0;fillColor=none;collapsible=0;dropTarget=0;points=[[0,0.5],[1,0.5]];portConstraint=eastwest;top=0;left=0;right=0;bottom=0;" vertex="1" parent="YYgHddTz2j56uieHM2Xs-19">
          <mxGeometry y="100" width="200" height="30" as="geometry" />
        </mxCell>
        <mxCell id="YYgHddTz2j56uieHM2Xs-27" value="" style="shape=partialRectangle;connectable=0;fillColor=none;top=0;left=0;bottom=0;right=0;editable=1;overflow=hidden;whiteSpace=wrap;html=1;" vertex="1" parent="YYgHddTz2j56uieHM2Xs-26">
          <mxGeometry width="30" height="30" as="geometry">
            <mxRectangle width="30" height="30" as="alternateBounds" />
          </mxGeometry>
        </mxCell>
        <mxCell id="YYgHddTz2j56uieHM2Xs-28" value="Категория_товара" style="shape=partialRectangle;connectable=0;fillColor=none;top=0;left=0;bottom=0;right=0;align=left;spacingLeft=6;overflow=hidden;whiteSpace=wrap;html=1;" vertex="1" parent="YYgHddTz2j56uieHM2Xs-26">
          <mxGeometry x="30" width="170" height="30" as="geometry">
            <mxRectangle width="170" height="30" as="alternateBounds" />
          </mxGeometry>
        </mxCell>
        <mxCell id="YYgHddTz2j56uieHM2Xs-29" value="" style="shape=tableRow;horizontal=0;startSize=0;swimlaneHead=0;swimlaneBody=0;fillColor=none;collapsible=0;dropTarget=0;points=[[0,0.5],[1,0.5]];portConstraint=eastwest;top=0;left=0;right=0;bottom=0;" vertex="1" parent="YYgHddTz2j56uieHM2Xs-19">
          <mxGeometry y="130" width="200" height="30" as="geometry" />
        </mxCell>
        <mxCell id="YYgHddTz2j56uieHM2Xs-30" value="" style="shape=partialRectangle;connectable=0;fillColor=none;top=0;left=0;bottom=0;right=0;editable=1;overflow=hidden;whiteSpace=wrap;html=1;" vertex="1" parent="YYgHddTz2j56uieHM2Xs-29">
          <mxGeometry width="30" height="30" as="geometry">
            <mxRectangle width="30" height="30" as="alternateBounds" />
          </mxGeometry>
        </mxCell>
        <mxCell id="YYgHddTz2j56uieHM2Xs-31" value="Название_категории" style="shape=partialRectangle;connectable=0;fillColor=none;top=0;left=0;bottom=0;right=0;align=left;spacingLeft=6;overflow=hidden;whiteSpace=wrap;html=1;" vertex="1" parent="YYgHddTz2j56uieHM2Xs-29">
          <mxGeometry x="30" width="170" height="30" as="geometry">
            <mxRectangle width="170" height="30" as="alternateBounds" />
          </mxGeometry>
        </mxCell>
        <mxCell id="YYgHddTz2j56uieHM2Xs-32" value="&lt;span style=&quot;font-weight: 400; text-wrap: wrap;&quot;&gt;Таблица фактических&lt;/span&gt;&lt;b&gt;&lt;span style=&quot;font-size:12.0pt;mso-bidi-font-size:&lt;br/&gt;11.0pt;line-height:150%;font-family:&amp;quot;Times New Roman&amp;quot;,serif;mso-fareast-font-family:&lt;br/&gt;Calibri;mso-fareast-theme-font:minor-latin;mso-bidi-theme-font:minor-bidi;&lt;br/&gt;mso-ansi-language:RU;mso-fareast-language:EN-US;mso-bidi-language:AR-SA&quot;&gt;&amp;nbsp;&lt;/span&gt;&lt;/b&gt;&lt;span style=&quot;font-weight: 400; text-wrap: wrap;&quot;&gt;продаж&amp;nbsp;&lt;/span&gt;&lt;span style=&quot;font-weight: 400; text-wrap: wrap; background-color: transparent; color: light-dark(rgb(0, 0, 0), rgb(255, 255, 255));&quot;&gt;(stg_sales)&lt;/span&gt;" style="shape=table;startSize=40;container=1;collapsible=1;childLayout=tableLayout;fixedRows=1;rowLines=0;fontStyle=1;align=center;resizeLast=1;html=1;fillColor=#e1d5e7;strokeColor=#9673a6;" vertex="1" parent="YYgHddTz2j56uieHM2Xs-18">
          <mxGeometry x="300" y="20" width="200" height="160" as="geometry">
            <mxRectangle x="1420" y="1000" width="180" height="30" as="alternateBounds" />
          </mxGeometry>
        </mxCell>
        <mxCell id="YYgHddTz2j56uieHM2Xs-33" value="" style="shape=tableRow;horizontal=0;startSize=0;swimlaneHead=0;swimlaneBody=0;fillColor=none;collapsible=0;dropTarget=0;points=[[0,0.5],[1,0.5]];portConstraint=eastwest;top=0;left=0;right=0;bottom=1;" vertex="1" parent="YYgHddTz2j56uieHM2Xs-32">
          <mxGeometry y="40" width="200" height="30" as="geometry" />
        </mxCell>
        <mxCell id="YYgHddTz2j56uieHM2Xs-34" value="PK" style="shape=partialRectangle;connectable=0;fillColor=none;top=0;left=0;bottom=0;right=0;fontStyle=1;overflow=hidden;whiteSpace=wrap;html=1;" vertex="1" parent="YYgHddTz2j56uieHM2Xs-33">
          <mxGeometry width="30" height="30" as="geometry">
            <mxRectangle width="30" height="30" as="alternateBounds" />
          </mxGeometry>
        </mxCell>
        <mxCell id="YYgHddTz2j56uieHM2Xs-35" value="Дата" style="shape=partialRectangle;connectable=0;fillColor=none;top=0;left=0;bottom=0;right=0;align=left;spacingLeft=6;fontStyle=5;overflow=hidden;whiteSpace=wrap;html=1;" vertex="1" parent="YYgHddTz2j56uieHM2Xs-33">
          <mxGeometry x="30" width="170" height="30" as="geometry">
            <mxRectangle width="170" height="30" as="alternateBounds" />
          </mxGeometry>
        </mxCell>
        <mxCell id="YYgHddTz2j56uieHM2Xs-36" value="" style="shape=tableRow;horizontal=0;startSize=0;swimlaneHead=0;swimlaneBody=0;fillColor=none;collapsible=0;dropTarget=0;points=[[0,0.5],[1,0.5]];portConstraint=eastwest;top=0;left=0;right=0;bottom=1;rounded=0;shadow=0;perimeterSpacing=1;" vertex="1" parent="YYgHddTz2j56uieHM2Xs-32">
          <mxGeometry y="70" width="200" height="30" as="geometry" />
        </mxCell>
        <mxCell id="YYgHddTz2j56uieHM2Xs-37" value="&lt;b&gt;PK&lt;/b&gt;" style="shape=partialRectangle;connectable=0;fillColor=none;top=0;left=0;bottom=0;right=0;editable=1;overflow=hidden;whiteSpace=wrap;html=1;" vertex="1" parent="YYgHddTz2j56uieHM2Xs-36">
          <mxGeometry width="30" height="30" as="geometry">
            <mxRectangle width="30" height="30" as="alternateBounds" />
          </mxGeometry>
        </mxCell>
        <mxCell id="YYgHddTz2j56uieHM2Xs-38" value="&lt;b&gt;Номер_товара&lt;/b&gt;" style="shape=partialRectangle;connectable=0;fillColor=none;top=1;left=0;bottom=0;right=0;align=left;spacingLeft=6;overflow=hidden;whiteSpace=wrap;html=1;" vertex="1" parent="YYgHddTz2j56uieHM2Xs-36">
          <mxGeometry x="30" width="170" height="30" as="geometry">
            <mxRectangle width="170" height="30" as="alternateBounds" />
          </mxGeometry>
        </mxCell>
        <mxCell id="YYgHddTz2j56uieHM2Xs-39" value="" style="shape=tableRow;horizontal=0;startSize=0;swimlaneHead=0;swimlaneBody=0;fillColor=none;collapsible=0;dropTarget=0;points=[[0,0.5],[1,0.5]];portConstraint=eastwest;top=0;left=0;right=0;bottom=1;" vertex="1" parent="YYgHddTz2j56uieHM2Xs-32">
          <mxGeometry y="100" width="200" height="30" as="geometry" />
        </mxCell>
        <mxCell id="YYgHddTz2j56uieHM2Xs-40" value="&lt;b&gt;PK&lt;/b&gt;" style="shape=partialRectangle;connectable=0;fillColor=none;top=0;left=0;bottom=0;right=0;editable=1;overflow=hidden;whiteSpace=wrap;html=1;" vertex="1" parent="YYgHddTz2j56uieHM2Xs-39">
          <mxGeometry width="30" height="30" as="geometry">
            <mxRectangle width="30" height="30" as="alternateBounds" />
          </mxGeometry>
        </mxCell>
        <mxCell id="YYgHddTz2j56uieHM2Xs-41" value="&lt;b&gt;Номер_заказа&lt;/b&gt;" style="shape=partialRectangle;connectable=0;fillColor=none;top=0;left=0;bottom=0;right=0;align=left;spacingLeft=6;overflow=hidden;whiteSpace=wrap;html=1;" vertex="1" parent="YYgHddTz2j56uieHM2Xs-39">
          <mxGeometry x="30" width="170" height="30" as="geometry">
            <mxRectangle width="170" height="30" as="alternateBounds" />
          </mxGeometry>
        </mxCell>
        <mxCell id="YYgHddTz2j56uieHM2Xs-42" value="" style="shape=tableRow;horizontal=0;startSize=0;swimlaneHead=0;swimlaneBody=0;fillColor=none;collapsible=0;dropTarget=0;points=[[0,0.5],[1,0.5]];portConstraint=eastwest;top=0;left=0;right=0;bottom=0;" vertex="1" parent="YYgHddTz2j56uieHM2Xs-32">
          <mxGeometry y="130" width="200" height="30" as="geometry" />
        </mxCell>
        <mxCell id="YYgHddTz2j56uieHM2Xs-43" value="" style="shape=partialRectangle;connectable=0;fillColor=none;top=0;left=0;bottom=0;right=0;editable=1;overflow=hidden;whiteSpace=wrap;html=1;" vertex="1" parent="YYgHddTz2j56uieHM2Xs-42">
          <mxGeometry width="30" height="30" as="geometry">
            <mxRectangle width="30" height="30" as="alternateBounds" />
          </mxGeometry>
        </mxCell>
        <mxCell id="YYgHddTz2j56uieHM2Xs-44" value="Сумма_продажи" style="shape=partialRectangle;connectable=0;fillColor=none;top=0;left=0;bottom=0;right=0;align=left;spacingLeft=6;overflow=hidden;whiteSpace=wrap;html=1;" vertex="1" parent="YYgHddTz2j56uieHM2Xs-42">
          <mxGeometry x="30" width="170" height="30" as="geometry">
            <mxRectangle width="170" height="30" as="alternateBounds" />
          </mxGeometry>
        </mxCell>
        <mxCell id="YYgHddTz2j56uieHM2Xs-45" value="&lt;span style=&quot;font-weight: 400; text-wrap: wrap;&quot;&gt;Таблица с рекламными&lt;/span&gt;&lt;b&gt;&lt;span style=&quot;font-size:12.0pt;mso-bidi-font-size:&lt;br/&gt;11.0pt;line-height:150%;font-family:&amp;quot;Times New Roman&amp;quot;,serif;mso-fareast-font-family:&lt;br/&gt;Calibri;mso-fareast-theme-font:minor-latin;mso-bidi-theme-font:minor-bidi;&lt;br/&gt;mso-ansi-language:RU;mso-fareast-language:EN-US;mso-bidi-language:AR-SA&quot;&gt;&amp;nbsp;&lt;/span&gt;&lt;/b&gt;&lt;span style=&quot;background-color: transparent; color: light-dark(rgb(0, 0, 0), rgb(255, 255, 255)); text-wrap: wrap; font-weight: 400;&quot;&gt;вложениями&lt;/span&gt;&lt;b&gt;&lt;span style=&quot;font-size:12.0pt;mso-bidi-font-size:&lt;br/&gt;11.0pt;line-height:150%;font-family:&amp;quot;Times New Roman&amp;quot;,serif;mso-fareast-font-family:&lt;br/&gt;Calibri;mso-fareast-theme-font:minor-latin;mso-bidi-theme-font:minor-bidi;&lt;br/&gt;mso-ansi-language:RU;mso-fareast-language:EN-US;mso-bidi-language:AR-SA&quot;&gt;&amp;nbsp;&lt;/span&gt;&lt;/b&gt;&lt;span style=&quot;background-color: transparent; color: light-dark(rgb(0, 0, 0), rgb(255, 255, 255)); text-wrap: wrap; font-weight: 400;&quot;&gt;продавцов&lt;/span&gt;&lt;b style=&quot;background-color: transparent; color: light-dark(rgb(0, 0, 0), rgb(255, 255, 255));&quot;&gt;&lt;span style=&quot;font-size:12.0pt;mso-bidi-font-size:&lt;br/&gt;11.0pt;line-height:150%;font-family:&amp;quot;Times New Roman&amp;quot;,serif;mso-fareast-font-family:&lt;br/&gt;Calibri;mso-fareast-theme-font:minor-latin;mso-bidi-theme-font:minor-bidi;&lt;br/&gt;mso-ansi-language:RU;mso-fareast-language:EN-US;mso-bidi-language:AR-SA&quot;&gt;&amp;nbsp;&lt;/span&gt;&lt;/b&gt;&lt;span style=&quot;background-color: transparent; color: light-dark(rgb(0, 0, 0), rgb(255, 255, 255)); text-wrap: wrap; font-weight: 400;&quot;&gt;(stg_&lt;/span&gt;&lt;span style=&quot;background-color: transparent; color: light-dark(rgb(0, 0, 0), rgb(255, 255, 255)); text-wrap: wrap; font-weight: 400;&quot;&gt;marketing)&lt;/span&gt;" style="shape=table;startSize=40;container=1;collapsible=1;childLayout=tableLayout;fixedRows=1;rowLines=0;fontStyle=1;align=center;resizeLast=1;html=1;fillColor=#e1d5e7;strokeColor=#9673a6;" vertex="1" parent="YYgHddTz2j56uieHM2Xs-18">
          <mxGeometry x="540" y="20" width="340" height="130" as="geometry">
            <mxRectangle x="1420" y="1000" width="180" height="30" as="alternateBounds" />
          </mxGeometry>
        </mxCell>
        <mxCell id="YYgHddTz2j56uieHM2Xs-46" value="" style="shape=tableRow;horizontal=0;startSize=0;swimlaneHead=0;swimlaneBody=0;fillColor=none;collapsible=0;dropTarget=0;points=[[0,0.5],[1,0.5]];portConstraint=eastwest;top=0;left=0;right=0;bottom=1;" vertex="1" parent="YYgHddTz2j56uieHM2Xs-45">
          <mxGeometry y="40" width="340" height="30" as="geometry" />
        </mxCell>
        <mxCell id="YYgHddTz2j56uieHM2Xs-47" value="PK" style="shape=partialRectangle;connectable=0;fillColor=none;top=0;left=0;bottom=0;right=0;fontStyle=1;overflow=hidden;whiteSpace=wrap;html=1;" vertex="1" parent="YYgHddTz2j56uieHM2Xs-46">
          <mxGeometry width="30" height="30" as="geometry">
            <mxRectangle width="30" height="30" as="alternateBounds" />
          </mxGeometry>
        </mxCell>
        <mxCell id="YYgHddTz2j56uieHM2Xs-48" value="Дата" style="shape=partialRectangle;connectable=0;fillColor=none;top=0;left=0;bottom=0;right=0;align=left;spacingLeft=6;fontStyle=5;overflow=hidden;whiteSpace=wrap;html=1;" vertex="1" parent="YYgHddTz2j56uieHM2Xs-46">
          <mxGeometry x="30" width="310" height="30" as="geometry">
            <mxRectangle width="310" height="30" as="alternateBounds" />
          </mxGeometry>
        </mxCell>
        <mxCell id="YYgHddTz2j56uieHM2Xs-49" value="" style="shape=tableRow;horizontal=0;startSize=0;swimlaneHead=0;swimlaneBody=0;fillColor=none;collapsible=0;dropTarget=0;points=[[0,0.5],[1,0.5]];portConstraint=eastwest;top=0;left=0;right=0;bottom=1;" vertex="1" parent="YYgHddTz2j56uieHM2Xs-45">
          <mxGeometry y="70" width="340" height="30" as="geometry" />
        </mxCell>
        <mxCell id="YYgHddTz2j56uieHM2Xs-50" value="&lt;b&gt;PK&lt;/b&gt;" style="shape=partialRectangle;connectable=0;fillColor=none;top=0;left=0;bottom=0;right=0;editable=1;overflow=hidden;whiteSpace=wrap;html=1;" vertex="1" parent="YYgHddTz2j56uieHM2Xs-49">
          <mxGeometry width="30" height="30" as="geometry">
            <mxRectangle width="30" height="30" as="alternateBounds" />
          </mxGeometry>
        </mxCell>
        <mxCell id="YYgHddTz2j56uieHM2Xs-51" value="&lt;b&gt;Название_товара&lt;/b&gt;" style="shape=partialRectangle;connectable=0;fillColor=none;top=0;left=0;bottom=0;right=0;align=left;spacingLeft=6;overflow=hidden;whiteSpace=wrap;html=1;" vertex="1" parent="YYgHddTz2j56uieHM2Xs-49">
          <mxGeometry x="30" width="310" height="30" as="geometry">
            <mxRectangle width="310" height="30" as="alternateBounds" />
          </mxGeometry>
        </mxCell>
        <mxCell id="YYgHddTz2j56uieHM2Xs-52" value="" style="shape=tableRow;horizontal=0;startSize=0;swimlaneHead=0;swimlaneBody=0;fillColor=none;collapsible=0;dropTarget=0;points=[[0,0.5],[1,0.5]];portConstraint=eastwest;top=0;left=0;right=0;bottom=0;" vertex="1" parent="YYgHddTz2j56uieHM2Xs-45">
          <mxGeometry y="100" width="340" height="30" as="geometry" />
        </mxCell>
        <mxCell id="YYgHddTz2j56uieHM2Xs-53" value="" style="shape=partialRectangle;connectable=0;fillColor=none;top=0;left=0;bottom=0;right=0;editable=1;overflow=hidden;whiteSpace=wrap;html=1;" vertex="1" parent="YYgHddTz2j56uieHM2Xs-52">
          <mxGeometry width="30" height="30" as="geometry">
            <mxRectangle width="30" height="30" as="alternateBounds" />
          </mxGeometry>
        </mxCell>
        <mxCell id="YYgHddTz2j56uieHM2Xs-54" value="Сумма_рекламы" style="shape=partialRectangle;connectable=0;fillColor=none;top=0;left=0;bottom=0;right=0;align=left;spacingLeft=6;overflow=hidden;whiteSpace=wrap;html=1;" vertex="1" parent="YYgHddTz2j56uieHM2Xs-52">
          <mxGeometry x="30" width="310" height="30" as="geometry">
            <mxRectangle width="310" height="30" as="alternateBounds" />
          </mxGeometry>
        </mxCell>
        <mxCell id="YYgHddTz2j56uieHM2Xs-55" value="DDS" style="swimlane;horizontal=0;whiteSpace=wrap;html=1;fillColor=#f5f5f5;fontColor=#333333;strokeColor=#666666;" vertex="1" parent="YYgHddTz2j56uieHM2Xs-17">
          <mxGeometry x="40" y="300" width="1320" height="660" as="geometry">
            <mxRectangle x="40" y="260" width="40" height="60" as="alternateBounds" />
          </mxGeometry>
        </mxCell>
        <mxCell id="YYgHddTz2j56uieHM2Xs-56" value="&lt;span style=&quot;font-weight: 400; text-wrap: wrap;&quot;&gt;Hub hun_sales&lt;/span&gt;" style="shape=table;startSize=30;container=1;collapsible=1;childLayout=tableLayout;fixedRows=1;rowLines=0;fontStyle=1;align=center;resizeLast=1;html=1;fillColor=#1ba1e2;strokeColor=#006EAF;fontColor=#ffffff;" vertex="1" parent="YYgHddTz2j56uieHM2Xs-55">
          <mxGeometry x="890" y="210" width="200" height="150" as="geometry">
            <mxRectangle x="1210" y="990" width="180" height="30" as="alternateBounds" />
          </mxGeometry>
        </mxCell>
        <mxCell id="YYgHddTz2j56uieHM2Xs-57" value="" style="shape=tableRow;horizontal=0;startSize=0;swimlaneHead=0;swimlaneBody=0;fillColor=none;collapsible=0;dropTarget=0;points=[[0,0.5],[1,0.5]];portConstraint=eastwest;top=0;left=0;right=0;bottom=1;" vertex="1" parent="YYgHddTz2j56uieHM2Xs-56">
          <mxGeometry y="30" width="200" height="30" as="geometry" />
        </mxCell>
        <mxCell id="YYgHddTz2j56uieHM2Xs-58" value="PK" style="shape=partialRectangle;connectable=0;fillColor=none;top=0;left=0;bottom=0;right=0;fontStyle=1;overflow=hidden;whiteSpace=wrap;html=1;" vertex="1" parent="YYgHddTz2j56uieHM2Xs-57">
          <mxGeometry width="30" height="30" as="geometry">
            <mxRectangle width="30" height="30" as="alternateBounds" />
          </mxGeometry>
        </mxCell>
        <mxCell id="YYgHddTz2j56uieHM2Xs-59" value="hk_sale_id" style="shape=partialRectangle;connectable=0;fillColor=none;top=0;left=0;bottom=0;right=0;align=left;spacingLeft=6;fontStyle=5;overflow=hidden;whiteSpace=wrap;html=1;" vertex="1" parent="YYgHddTz2j56uieHM2Xs-57">
          <mxGeometry x="30" width="170" height="30" as="geometry">
            <mxRectangle width="170" height="30" as="alternateBounds" />
          </mxGeometry>
        </mxCell>
        <mxCell id="YYgHddTz2j56uieHM2Xs-60" value="" style="shape=tableRow;horizontal=0;startSize=0;swimlaneHead=0;swimlaneBody=0;fillColor=none;collapsible=0;dropTarget=0;points=[[0,0.5],[1,0.5]];portConstraint=eastwest;top=0;left=0;right=0;bottom=0;" vertex="1" parent="YYgHddTz2j56uieHM2Xs-56">
          <mxGeometry y="60" width="200" height="30" as="geometry" />
        </mxCell>
        <mxCell id="YYgHddTz2j56uieHM2Xs-61" value="" style="shape=partialRectangle;connectable=0;fillColor=none;top=0;left=0;bottom=0;right=0;editable=1;overflow=hidden;whiteSpace=wrap;html=1;" vertex="1" parent="YYgHddTz2j56uieHM2Xs-60">
          <mxGeometry width="30" height="30" as="geometry">
            <mxRectangle width="30" height="30" as="alternateBounds" />
          </mxGeometry>
        </mxCell>
        <mxCell id="YYgHddTz2j56uieHM2Xs-62" value="sale_id" style="shape=partialRectangle;connectable=0;fillColor=none;top=0;left=0;bottom=0;right=0;align=left;spacingLeft=6;overflow=hidden;whiteSpace=wrap;html=1;" vertex="1" parent="YYgHddTz2j56uieHM2Xs-60">
          <mxGeometry x="30" width="170" height="30" as="geometry">
            <mxRectangle width="170" height="30" as="alternateBounds" />
          </mxGeometry>
        </mxCell>
        <mxCell id="YYgHddTz2j56uieHM2Xs-63" value="" style="shape=tableRow;horizontal=0;startSize=0;swimlaneHead=0;swimlaneBody=0;fillColor=none;collapsible=0;dropTarget=0;points=[[0,0.5],[1,0.5]];portConstraint=eastwest;top=0;left=0;right=0;bottom=0;" vertex="1" parent="YYgHddTz2j56uieHM2Xs-56">
          <mxGeometry y="90" width="200" height="30" as="geometry" />
        </mxCell>
        <mxCell id="YYgHddTz2j56uieHM2Xs-64" value="" style="shape=partialRectangle;connectable=0;fillColor=none;top=0;left=0;bottom=0;right=0;editable=1;overflow=hidden;whiteSpace=wrap;html=1;" vertex="1" parent="YYgHddTz2j56uieHM2Xs-63">
          <mxGeometry width="30" height="30" as="geometry">
            <mxRectangle width="30" height="30" as="alternateBounds" />
          </mxGeometry>
        </mxCell>
        <mxCell id="YYgHddTz2j56uieHM2Xs-65" value="load_dt" style="shape=partialRectangle;connectable=0;fillColor=none;top=0;left=0;bottom=0;right=0;align=left;spacingLeft=6;overflow=hidden;whiteSpace=wrap;html=1;" vertex="1" parent="YYgHddTz2j56uieHM2Xs-63">
          <mxGeometry x="30" width="170" height="30" as="geometry">
            <mxRectangle width="170" height="30" as="alternateBounds" />
          </mxGeometry>
        </mxCell>
        <mxCell id="YYgHddTz2j56uieHM2Xs-66" style="shape=tableRow;horizontal=0;startSize=0;swimlaneHead=0;swimlaneBody=0;fillColor=none;collapsible=0;dropTarget=0;points=[[0,0.5],[1,0.5]];portConstraint=eastwest;top=0;left=0;right=0;bottom=0;" vertex="1" parent="YYgHddTz2j56uieHM2Xs-56">
          <mxGeometry y="120" width="200" height="30" as="geometry" />
        </mxCell>
        <mxCell id="YYgHddTz2j56uieHM2Xs-67" style="shape=partialRectangle;connectable=0;fillColor=none;top=0;left=0;bottom=0;right=0;editable=1;overflow=hidden;whiteSpace=wrap;html=1;" vertex="1" parent="YYgHddTz2j56uieHM2Xs-66">
          <mxGeometry width="30" height="30" as="geometry">
            <mxRectangle width="30" height="30" as="alternateBounds" />
          </mxGeometry>
        </mxCell>
        <mxCell id="YYgHddTz2j56uieHM2Xs-68" value="source" style="shape=partialRectangle;connectable=0;fillColor=none;top=0;left=0;bottom=0;right=0;align=left;spacingLeft=6;overflow=hidden;whiteSpace=wrap;html=1;" vertex="1" parent="YYgHddTz2j56uieHM2Xs-66">
          <mxGeometry x="30" width="170" height="30" as="geometry">
            <mxRectangle width="170" height="30" as="alternateBounds" />
          </mxGeometry>
        </mxCell>
        <mxCell id="YYgHddTz2j56uieHM2Xs-69" value="&lt;span style=&quot;font-weight: 400; text-wrap: wrap;&quot;&gt;Hub hub_category&lt;/span&gt;" style="shape=table;startSize=30;container=1;collapsible=1;childLayout=tableLayout;fixedRows=1;rowLines=0;fontStyle=1;align=center;resizeLast=1;html=1;fillColor=#1ba1e2;strokeColor=#006EAF;fontColor=#ffffff;" vertex="1" parent="YYgHddTz2j56uieHM2Xs-55">
          <mxGeometry x="70" y="229" width="200" height="150" as="geometry">
            <mxRectangle x="940" y="1549" width="180" height="30" as="alternateBounds" />
          </mxGeometry>
        </mxCell>
        <mxCell id="YYgHddTz2j56uieHM2Xs-70" value="" style="shape=tableRow;horizontal=0;startSize=0;swimlaneHead=0;swimlaneBody=0;fillColor=none;collapsible=0;dropTarget=0;points=[[0,0.5],[1,0.5]];portConstraint=eastwest;top=0;left=0;right=0;bottom=1;" vertex="1" parent="YYgHddTz2j56uieHM2Xs-69">
          <mxGeometry y="30" width="200" height="30" as="geometry" />
        </mxCell>
        <mxCell id="YYgHddTz2j56uieHM2Xs-71" value="PK" style="shape=partialRectangle;connectable=0;fillColor=none;top=0;left=0;bottom=0;right=0;fontStyle=1;overflow=hidden;whiteSpace=wrap;html=1;" vertex="1" parent="YYgHddTz2j56uieHM2Xs-70">
          <mxGeometry width="30" height="30" as="geometry">
            <mxRectangle width="30" height="30" as="alternateBounds" />
          </mxGeometry>
        </mxCell>
        <mxCell id="YYgHddTz2j56uieHM2Xs-72" value="hk_category_id" style="shape=partialRectangle;connectable=0;fillColor=none;top=0;left=0;bottom=0;right=0;align=left;spacingLeft=6;fontStyle=5;overflow=hidden;whiteSpace=wrap;html=1;" vertex="1" parent="YYgHddTz2j56uieHM2Xs-70">
          <mxGeometry x="30" width="170" height="30" as="geometry">
            <mxRectangle width="170" height="30" as="alternateBounds" />
          </mxGeometry>
        </mxCell>
        <mxCell id="YYgHddTz2j56uieHM2Xs-73" value="" style="shape=tableRow;horizontal=0;startSize=0;swimlaneHead=0;swimlaneBody=0;fillColor=none;collapsible=0;dropTarget=0;points=[[0,0.5],[1,0.5]];portConstraint=eastwest;top=0;left=0;right=0;bottom=0;" vertex="1" parent="YYgHddTz2j56uieHM2Xs-69">
          <mxGeometry y="60" width="200" height="30" as="geometry" />
        </mxCell>
        <mxCell id="YYgHddTz2j56uieHM2Xs-74" value="" style="shape=partialRectangle;connectable=0;fillColor=none;top=0;left=0;bottom=0;right=0;editable=1;overflow=hidden;whiteSpace=wrap;html=1;" vertex="1" parent="YYgHddTz2j56uieHM2Xs-73">
          <mxGeometry width="30" height="30" as="geometry">
            <mxRectangle width="30" height="30" as="alternateBounds" />
          </mxGeometry>
        </mxCell>
        <mxCell id="YYgHddTz2j56uieHM2Xs-75" value="&lt;span style=&quot;text-align: center;&quot;&gt;category&lt;/span&gt;_id" style="shape=partialRectangle;connectable=0;fillColor=none;top=0;left=0;bottom=0;right=0;align=left;spacingLeft=6;overflow=hidden;whiteSpace=wrap;html=1;" vertex="1" parent="YYgHddTz2j56uieHM2Xs-73">
          <mxGeometry x="30" width="170" height="30" as="geometry">
            <mxRectangle width="170" height="30" as="alternateBounds" />
          </mxGeometry>
        </mxCell>
        <mxCell id="YYgHddTz2j56uieHM2Xs-76" value="" style="shape=tableRow;horizontal=0;startSize=0;swimlaneHead=0;swimlaneBody=0;fillColor=none;collapsible=0;dropTarget=0;points=[[0,0.5],[1,0.5]];portConstraint=eastwest;top=0;left=0;right=0;bottom=0;" vertex="1" parent="YYgHddTz2j56uieHM2Xs-69">
          <mxGeometry y="90" width="200" height="30" as="geometry" />
        </mxCell>
        <mxCell id="YYgHddTz2j56uieHM2Xs-77" value="" style="shape=partialRectangle;connectable=0;fillColor=none;top=0;left=0;bottom=0;right=0;editable=1;overflow=hidden;whiteSpace=wrap;html=1;" vertex="1" parent="YYgHddTz2j56uieHM2Xs-76">
          <mxGeometry width="30" height="30" as="geometry">
            <mxRectangle width="30" height="30" as="alternateBounds" />
          </mxGeometry>
        </mxCell>
        <mxCell id="YYgHddTz2j56uieHM2Xs-78" value="load_dt" style="shape=partialRectangle;connectable=0;fillColor=none;top=0;left=0;bottom=0;right=0;align=left;spacingLeft=6;overflow=hidden;whiteSpace=wrap;html=1;" vertex="1" parent="YYgHddTz2j56uieHM2Xs-76">
          <mxGeometry x="30" width="170" height="30" as="geometry">
            <mxRectangle width="170" height="30" as="alternateBounds" />
          </mxGeometry>
        </mxCell>
        <mxCell id="YYgHddTz2j56uieHM2Xs-79" style="shape=tableRow;horizontal=0;startSize=0;swimlaneHead=0;swimlaneBody=0;fillColor=none;collapsible=0;dropTarget=0;points=[[0,0.5],[1,0.5]];portConstraint=eastwest;top=0;left=0;right=0;bottom=0;" vertex="1" parent="YYgHddTz2j56uieHM2Xs-69">
          <mxGeometry y="120" width="200" height="30" as="geometry" />
        </mxCell>
        <mxCell id="YYgHddTz2j56uieHM2Xs-80" style="shape=partialRectangle;connectable=0;fillColor=none;top=0;left=0;bottom=0;right=0;editable=1;overflow=hidden;whiteSpace=wrap;html=1;" vertex="1" parent="YYgHddTz2j56uieHM2Xs-79">
          <mxGeometry width="30" height="30" as="geometry">
            <mxRectangle width="30" height="30" as="alternateBounds" />
          </mxGeometry>
        </mxCell>
        <mxCell id="YYgHddTz2j56uieHM2Xs-81" value="source" style="shape=partialRectangle;connectable=0;fillColor=none;top=0;left=0;bottom=0;right=0;align=left;spacingLeft=6;overflow=hidden;whiteSpace=wrap;html=1;" vertex="1" parent="YYgHddTz2j56uieHM2Xs-79">
          <mxGeometry x="30" width="170" height="30" as="geometry">
            <mxRectangle width="170" height="30" as="alternateBounds" />
          </mxGeometry>
        </mxCell>
        <mxCell id="YYgHddTz2j56uieHM2Xs-82" value="&lt;span style=&quot;font-weight: 400; text-wrap: wrap;&quot;&gt;Hub hub_marketing&lt;/span&gt;" style="shape=table;startSize=30;container=1;collapsible=1;childLayout=tableLayout;fixedRows=1;rowLines=0;fontStyle=1;align=center;resizeLast=1;html=1;fillColor=#1ba1e2;strokeColor=#006EAF;fontColor=#ffffff;" vertex="1" parent="YYgHddTz2j56uieHM2Xs-55">
          <mxGeometry x="350" y="440" width="200" height="180" as="geometry">
            <mxRectangle x="720" y="1000" width="180" height="30" as="alternateBounds" />
          </mxGeometry>
        </mxCell>
        <mxCell id="YYgHddTz2j56uieHM2Xs-83" value="" style="shape=tableRow;horizontal=0;startSize=0;swimlaneHead=0;swimlaneBody=0;fillColor=none;collapsible=0;dropTarget=0;points=[[0,0.5],[1,0.5]];portConstraint=eastwest;top=0;left=0;right=0;bottom=1;" vertex="1" parent="YYgHddTz2j56uieHM2Xs-82">
          <mxGeometry y="30" width="200" height="30" as="geometry" />
        </mxCell>
        <mxCell id="YYgHddTz2j56uieHM2Xs-84" value="PK" style="shape=partialRectangle;connectable=0;fillColor=none;top=0;left=0;bottom=0;right=0;fontStyle=1;overflow=hidden;whiteSpace=wrap;html=1;" vertex="1" parent="YYgHddTz2j56uieHM2Xs-83">
          <mxGeometry width="30" height="30" as="geometry">
            <mxRectangle width="30" height="30" as="alternateBounds" />
          </mxGeometry>
        </mxCell>
        <mxCell id="YYgHddTz2j56uieHM2Xs-85" value="hk_marketing_id" style="shape=partialRectangle;connectable=0;fillColor=none;top=0;left=0;bottom=0;right=0;align=left;spacingLeft=6;fontStyle=5;overflow=hidden;whiteSpace=wrap;html=1;" vertex="1" parent="YYgHddTz2j56uieHM2Xs-83">
          <mxGeometry x="30" width="170" height="30" as="geometry">
            <mxRectangle width="170" height="30" as="alternateBounds" />
          </mxGeometry>
        </mxCell>
        <mxCell id="YYgHddTz2j56uieHM2Xs-86" value="" style="shape=tableRow;horizontal=0;startSize=0;swimlaneHead=0;swimlaneBody=0;fillColor=none;collapsible=0;dropTarget=0;points=[[0,0.5],[1,0.5]];portConstraint=eastwest;top=0;left=0;right=0;bottom=0;" vertex="1" parent="YYgHddTz2j56uieHM2Xs-82">
          <mxGeometry y="60" width="200" height="30" as="geometry" />
        </mxCell>
        <mxCell id="YYgHddTz2j56uieHM2Xs-87" value="" style="shape=partialRectangle;connectable=0;fillColor=none;top=0;left=0;bottom=0;right=0;editable=1;overflow=hidden;whiteSpace=wrap;html=1;" vertex="1" parent="YYgHddTz2j56uieHM2Xs-86">
          <mxGeometry width="30" height="30" as="geometry">
            <mxRectangle width="30" height="30" as="alternateBounds" />
          </mxGeometry>
        </mxCell>
        <mxCell id="YYgHddTz2j56uieHM2Xs-88" value="&lt;div style=&quot;text-align: center;&quot;&gt;&lt;span style=&quot;background-color: transparent; color: light-dark(rgb(0, 0, 0), rgb(255, 255, 255));&quot;&gt;marketing_dt&lt;/span&gt;&lt;/div&gt;" style="shape=partialRectangle;connectable=0;fillColor=none;top=0;left=0;bottom=0;right=0;align=left;spacingLeft=6;overflow=hidden;whiteSpace=wrap;html=1;" vertex="1" parent="YYgHddTz2j56uieHM2Xs-86">
          <mxGeometry x="30" width="170" height="30" as="geometry">
            <mxRectangle width="170" height="30" as="alternateBounds" />
          </mxGeometry>
        </mxCell>
        <mxCell id="YYgHddTz2j56uieHM2Xs-89" value="" style="shape=tableRow;horizontal=0;startSize=0;swimlaneHead=0;swimlaneBody=0;fillColor=none;collapsible=0;dropTarget=0;points=[[0,0.5],[1,0.5]];portConstraint=eastwest;top=0;left=0;right=0;bottom=0;" vertex="1" parent="YYgHddTz2j56uieHM2Xs-82">
          <mxGeometry y="90" width="200" height="30" as="geometry" />
        </mxCell>
        <mxCell id="YYgHddTz2j56uieHM2Xs-90" value="" style="shape=partialRectangle;connectable=0;fillColor=none;top=0;left=0;bottom=0;right=0;editable=1;overflow=hidden;whiteSpace=wrap;html=1;" vertex="1" parent="YYgHddTz2j56uieHM2Xs-89">
          <mxGeometry width="30" height="30" as="geometry">
            <mxRectangle width="30" height="30" as="alternateBounds" />
          </mxGeometry>
        </mxCell>
        <mxCell id="YYgHddTz2j56uieHM2Xs-91" value="product_id" style="shape=partialRectangle;connectable=0;fillColor=none;top=0;left=0;bottom=0;right=0;align=left;spacingLeft=6;overflow=hidden;whiteSpace=wrap;html=1;" vertex="1" parent="YYgHddTz2j56uieHM2Xs-89">
          <mxGeometry x="30" width="170" height="30" as="geometry">
            <mxRectangle width="170" height="30" as="alternateBounds" />
          </mxGeometry>
        </mxCell>
        <mxCell id="YYgHddTz2j56uieHM2Xs-92" style="shape=tableRow;horizontal=0;startSize=0;swimlaneHead=0;swimlaneBody=0;fillColor=none;collapsible=0;dropTarget=0;points=[[0,0.5],[1,0.5]];portConstraint=eastwest;top=0;left=0;right=0;bottom=0;" vertex="1" parent="YYgHddTz2j56uieHM2Xs-82">
          <mxGeometry y="120" width="200" height="30" as="geometry" />
        </mxCell>
        <mxCell id="YYgHddTz2j56uieHM2Xs-93" style="shape=partialRectangle;connectable=0;fillColor=none;top=0;left=0;bottom=0;right=0;editable=1;overflow=hidden;whiteSpace=wrap;html=1;" vertex="1" parent="YYgHddTz2j56uieHM2Xs-92">
          <mxGeometry width="30" height="30" as="geometry">
            <mxRectangle width="30" height="30" as="alternateBounds" />
          </mxGeometry>
        </mxCell>
        <mxCell id="YYgHddTz2j56uieHM2Xs-94" value="load_dt" style="shape=partialRectangle;connectable=0;fillColor=none;top=0;left=0;bottom=0;right=0;align=left;spacingLeft=6;overflow=hidden;whiteSpace=wrap;html=1;" vertex="1" parent="YYgHddTz2j56uieHM2Xs-92">
          <mxGeometry x="30" width="170" height="30" as="geometry">
            <mxRectangle width="170" height="30" as="alternateBounds" />
          </mxGeometry>
        </mxCell>
        <mxCell id="YYgHddTz2j56uieHM2Xs-95" style="shape=tableRow;horizontal=0;startSize=0;swimlaneHead=0;swimlaneBody=0;fillColor=none;collapsible=0;dropTarget=0;points=[[0,0.5],[1,0.5]];portConstraint=eastwest;top=0;left=0;right=0;bottom=0;" vertex="1" parent="YYgHddTz2j56uieHM2Xs-82">
          <mxGeometry y="150" width="200" height="30" as="geometry" />
        </mxCell>
        <mxCell id="YYgHddTz2j56uieHM2Xs-96" style="shape=partialRectangle;connectable=0;fillColor=none;top=0;left=0;bottom=0;right=0;editable=1;overflow=hidden;whiteSpace=wrap;html=1;" vertex="1" parent="YYgHddTz2j56uieHM2Xs-95">
          <mxGeometry width="30" height="30" as="geometry">
            <mxRectangle width="30" height="30" as="alternateBounds" />
          </mxGeometry>
        </mxCell>
        <mxCell id="YYgHddTz2j56uieHM2Xs-97" value="source" style="shape=partialRectangle;connectable=0;fillColor=none;top=0;left=0;bottom=0;right=0;align=left;spacingLeft=6;overflow=hidden;whiteSpace=wrap;html=1;" vertex="1" parent="YYgHddTz2j56uieHM2Xs-95">
          <mxGeometry x="30" width="170" height="30" as="geometry">
            <mxRectangle width="170" height="30" as="alternateBounds" />
          </mxGeometry>
        </mxCell>
        <mxCell id="YYgHddTz2j56uieHM2Xs-98" value="&lt;span style=&quot;font-weight: 400; text-wrap: wrap;&quot;&gt;Hub hub_product&lt;/span&gt;" style="shape=table;startSize=30;container=1;collapsible=1;childLayout=tableLayout;fixedRows=1;rowLines=0;fontStyle=1;align=center;resizeLast=1;html=1;fillColor=#1ba1e2;strokeColor=#006EAF;fontColor=#ffffff;" vertex="1" parent="YYgHddTz2j56uieHM2Xs-55">
          <mxGeometry x="610" y="210" width="200" height="150" as="geometry">
            <mxRectangle x="1480" y="1530" width="180" height="30" as="alternateBounds" />
          </mxGeometry>
        </mxCell>
        <mxCell id="YYgHddTz2j56uieHM2Xs-99" value="" style="shape=tableRow;horizontal=0;startSize=0;swimlaneHead=0;swimlaneBody=0;fillColor=none;collapsible=0;dropTarget=0;points=[[0,0.5],[1,0.5]];portConstraint=eastwest;top=0;left=0;right=0;bottom=1;" vertex="1" parent="YYgHddTz2j56uieHM2Xs-98">
          <mxGeometry y="30" width="200" height="30" as="geometry" />
        </mxCell>
        <mxCell id="YYgHddTz2j56uieHM2Xs-100" value="PK" style="shape=partialRectangle;connectable=0;fillColor=none;top=0;left=0;bottom=0;right=0;fontStyle=1;overflow=hidden;whiteSpace=wrap;html=1;" vertex="1" parent="YYgHddTz2j56uieHM2Xs-99">
          <mxGeometry width="30" height="30" as="geometry">
            <mxRectangle width="30" height="30" as="alternateBounds" />
          </mxGeometry>
        </mxCell>
        <mxCell id="YYgHddTz2j56uieHM2Xs-101" value="hk_product_id" style="shape=partialRectangle;connectable=0;fillColor=none;top=0;left=0;bottom=0;right=0;align=left;spacingLeft=6;fontStyle=5;overflow=hidden;whiteSpace=wrap;html=1;" vertex="1" parent="YYgHddTz2j56uieHM2Xs-99">
          <mxGeometry x="30" width="170" height="30" as="geometry">
            <mxRectangle width="170" height="30" as="alternateBounds" />
          </mxGeometry>
        </mxCell>
        <mxCell id="YYgHddTz2j56uieHM2Xs-102" value="" style="shape=tableRow;horizontal=0;startSize=0;swimlaneHead=0;swimlaneBody=0;fillColor=none;collapsible=0;dropTarget=0;points=[[0,0.5],[1,0.5]];portConstraint=eastwest;top=0;left=0;right=0;bottom=0;" vertex="1" parent="YYgHddTz2j56uieHM2Xs-98">
          <mxGeometry y="60" width="200" height="30" as="geometry" />
        </mxCell>
        <mxCell id="YYgHddTz2j56uieHM2Xs-103" value="" style="shape=partialRectangle;connectable=0;fillColor=none;top=0;left=0;bottom=0;right=0;editable=1;overflow=hidden;whiteSpace=wrap;html=1;" vertex="1" parent="YYgHddTz2j56uieHM2Xs-102">
          <mxGeometry width="30" height="30" as="geometry">
            <mxRectangle width="30" height="30" as="alternateBounds" />
          </mxGeometry>
        </mxCell>
        <mxCell id="YYgHddTz2j56uieHM2Xs-104" value="&lt;div style=&quot;text-align: center;&quot;&gt;&lt;span style=&quot;background-color: transparent; color: light-dark(rgb(0, 0, 0), rgb(255, 255, 255));&quot;&gt;product_id&lt;/span&gt;&lt;/div&gt;" style="shape=partialRectangle;connectable=0;fillColor=none;top=0;left=0;bottom=0;right=0;align=left;spacingLeft=6;overflow=hidden;whiteSpace=wrap;html=1;" vertex="1" parent="YYgHddTz2j56uieHM2Xs-102">
          <mxGeometry x="30" width="170" height="30" as="geometry">
            <mxRectangle width="170" height="30" as="alternateBounds" />
          </mxGeometry>
        </mxCell>
        <mxCell id="YYgHddTz2j56uieHM2Xs-105" value="" style="shape=tableRow;horizontal=0;startSize=0;swimlaneHead=0;swimlaneBody=0;fillColor=none;collapsible=0;dropTarget=0;points=[[0,0.5],[1,0.5]];portConstraint=eastwest;top=0;left=0;right=0;bottom=0;" vertex="1" parent="YYgHddTz2j56uieHM2Xs-98">
          <mxGeometry y="90" width="200" height="30" as="geometry" />
        </mxCell>
        <mxCell id="YYgHddTz2j56uieHM2Xs-106" value="" style="shape=partialRectangle;connectable=0;fillColor=none;top=0;left=0;bottom=0;right=0;editable=1;overflow=hidden;whiteSpace=wrap;html=1;" vertex="1" parent="YYgHddTz2j56uieHM2Xs-105">
          <mxGeometry width="30" height="30" as="geometry">
            <mxRectangle width="30" height="30" as="alternateBounds" />
          </mxGeometry>
        </mxCell>
        <mxCell id="YYgHddTz2j56uieHM2Xs-107" value="load_dt" style="shape=partialRectangle;connectable=0;fillColor=none;top=0;left=0;bottom=0;right=0;align=left;spacingLeft=6;overflow=hidden;whiteSpace=wrap;html=1;" vertex="1" parent="YYgHddTz2j56uieHM2Xs-105">
          <mxGeometry x="30" width="170" height="30" as="geometry">
            <mxRectangle width="170" height="30" as="alternateBounds" />
          </mxGeometry>
        </mxCell>
        <mxCell id="YYgHddTz2j56uieHM2Xs-108" style="shape=tableRow;horizontal=0;startSize=0;swimlaneHead=0;swimlaneBody=0;fillColor=none;collapsible=0;dropTarget=0;points=[[0,0.5],[1,0.5]];portConstraint=eastwest;top=0;left=0;right=0;bottom=0;" vertex="1" parent="YYgHddTz2j56uieHM2Xs-98">
          <mxGeometry y="120" width="200" height="30" as="geometry" />
        </mxCell>
        <mxCell id="YYgHddTz2j56uieHM2Xs-109" style="shape=partialRectangle;connectable=0;fillColor=none;top=0;left=0;bottom=0;right=0;editable=1;overflow=hidden;whiteSpace=wrap;html=1;" vertex="1" parent="YYgHddTz2j56uieHM2Xs-108">
          <mxGeometry width="30" height="30" as="geometry">
            <mxRectangle width="30" height="30" as="alternateBounds" />
          </mxGeometry>
        </mxCell>
        <mxCell id="YYgHddTz2j56uieHM2Xs-110" value="source" style="shape=partialRectangle;connectable=0;fillColor=none;top=0;left=0;bottom=0;right=0;align=left;spacingLeft=6;overflow=hidden;whiteSpace=wrap;html=1;" vertex="1" parent="YYgHddTz2j56uieHM2Xs-108">
          <mxGeometry x="30" width="170" height="30" as="geometry">
            <mxRectangle width="170" height="30" as="alternateBounds" />
          </mxGeometry>
        </mxCell>
        <mxCell id="YYgHddTz2j56uieHM2Xs-111" value="&lt;span style=&quot;font-weight: 400; text-wrap: wrap;&quot;&gt;Link&amp;nbsp;&lt;/span&gt;&lt;div&gt;&lt;span style=&quot;font-weight: 400; text-wrap: wrap;&quot;&gt;link_category_product&lt;/span&gt;&lt;/div&gt;" style="shape=table;startSize=30;container=1;collapsible=1;childLayout=tableLayout;fixedRows=1;rowLines=0;fontStyle=1;align=center;resizeLast=1;html=1;fillColor=#a20025;strokeColor=#6F0000;fontColor=#ffffff;" vertex="1" parent="YYgHddTz2j56uieHM2Xs-55">
          <mxGeometry x="350" y="229" width="200" height="180" as="geometry">
            <mxRectangle x="960" y="1000" width="180" height="30" as="alternateBounds" />
          </mxGeometry>
        </mxCell>
        <mxCell id="YYgHddTz2j56uieHM2Xs-112" value="" style="shape=tableRow;horizontal=0;startSize=0;swimlaneHead=0;swimlaneBody=0;fillColor=none;collapsible=0;dropTarget=0;points=[[0,0.5],[1,0.5]];portConstraint=eastwest;top=0;left=0;right=0;bottom=1;" vertex="1" parent="YYgHddTz2j56uieHM2Xs-111">
          <mxGeometry y="30" width="200" height="30" as="geometry" />
        </mxCell>
        <mxCell id="YYgHddTz2j56uieHM2Xs-113" value="PK" style="shape=partialRectangle;connectable=0;fillColor=none;top=0;left=0;bottom=0;right=0;fontStyle=1;overflow=hidden;whiteSpace=wrap;html=1;" vertex="1" parent="YYgHddTz2j56uieHM2Xs-112">
          <mxGeometry width="30" height="30" as="geometry">
            <mxRectangle width="30" height="30" as="alternateBounds" />
          </mxGeometry>
        </mxCell>
        <mxCell id="YYgHddTz2j56uieHM2Xs-114" value="hk_category_product_id" style="shape=partialRectangle;connectable=0;fillColor=none;top=0;left=0;bottom=0;right=0;align=left;spacingLeft=6;fontStyle=5;overflow=hidden;whiteSpace=wrap;html=1;" vertex="1" parent="YYgHddTz2j56uieHM2Xs-112">
          <mxGeometry x="30" width="170" height="30" as="geometry">
            <mxRectangle width="170" height="30" as="alternateBounds" />
          </mxGeometry>
        </mxCell>
        <mxCell id="YYgHddTz2j56uieHM2Xs-115" value="" style="shape=tableRow;horizontal=0;startSize=0;swimlaneHead=0;swimlaneBody=0;fillColor=none;collapsible=0;dropTarget=0;points=[[0,0.5],[1,0.5]];portConstraint=eastwest;top=0;left=0;right=0;bottom=0;" vertex="1" parent="YYgHddTz2j56uieHM2Xs-111">
          <mxGeometry y="60" width="200" height="30" as="geometry" />
        </mxCell>
        <mxCell id="YYgHddTz2j56uieHM2Xs-116" value="FK" style="shape=partialRectangle;connectable=0;fillColor=none;top=0;left=0;bottom=0;right=0;editable=1;overflow=hidden;whiteSpace=wrap;html=1;" vertex="1" parent="YYgHddTz2j56uieHM2Xs-115">
          <mxGeometry width="30" height="30" as="geometry">
            <mxRectangle width="30" height="30" as="alternateBounds" />
          </mxGeometry>
        </mxCell>
        <mxCell id="YYgHddTz2j56uieHM2Xs-117" value="&lt;span style=&quot;text-align: center;&quot;&gt;hk_category&lt;/span&gt;_id" style="shape=partialRectangle;connectable=0;fillColor=none;top=0;left=0;bottom=0;right=0;align=left;spacingLeft=6;overflow=hidden;whiteSpace=wrap;html=1;" vertex="1" parent="YYgHddTz2j56uieHM2Xs-115">
          <mxGeometry x="30" width="170" height="30" as="geometry">
            <mxRectangle width="170" height="30" as="alternateBounds" />
          </mxGeometry>
        </mxCell>
        <mxCell id="YYgHddTz2j56uieHM2Xs-118" value="" style="shape=tableRow;horizontal=0;startSize=0;swimlaneHead=0;swimlaneBody=0;fillColor=none;collapsible=0;dropTarget=0;points=[[0,0.5],[1,0.5]];portConstraint=eastwest;top=0;left=0;right=0;bottom=0;" vertex="1" parent="YYgHddTz2j56uieHM2Xs-111">
          <mxGeometry y="90" width="200" height="30" as="geometry" />
        </mxCell>
        <mxCell id="YYgHddTz2j56uieHM2Xs-119" value="FK" style="shape=partialRectangle;connectable=0;fillColor=none;top=0;left=0;bottom=0;right=0;editable=1;overflow=hidden;whiteSpace=wrap;html=1;" vertex="1" parent="YYgHddTz2j56uieHM2Xs-118">
          <mxGeometry width="30" height="30" as="geometry">
            <mxRectangle width="30" height="30" as="alternateBounds" />
          </mxGeometry>
        </mxCell>
        <mxCell id="YYgHddTz2j56uieHM2Xs-120" value="hk_product_id" style="shape=partialRectangle;connectable=0;fillColor=none;top=0;left=0;bottom=0;right=0;align=left;spacingLeft=6;overflow=hidden;whiteSpace=wrap;html=1;" vertex="1" parent="YYgHddTz2j56uieHM2Xs-118">
          <mxGeometry x="30" width="170" height="30" as="geometry">
            <mxRectangle width="170" height="30" as="alternateBounds" />
          </mxGeometry>
        </mxCell>
        <mxCell id="YYgHddTz2j56uieHM2Xs-121" style="shape=tableRow;horizontal=0;startSize=0;swimlaneHead=0;swimlaneBody=0;fillColor=none;collapsible=0;dropTarget=0;points=[[0,0.5],[1,0.5]];portConstraint=eastwest;top=0;left=0;right=0;bottom=0;" vertex="1" parent="YYgHddTz2j56uieHM2Xs-111">
          <mxGeometry y="120" width="200" height="30" as="geometry" />
        </mxCell>
        <mxCell id="YYgHddTz2j56uieHM2Xs-122" style="shape=partialRectangle;connectable=0;fillColor=none;top=0;left=0;bottom=0;right=0;editable=1;overflow=hidden;whiteSpace=wrap;html=1;" vertex="1" parent="YYgHddTz2j56uieHM2Xs-121">
          <mxGeometry width="30" height="30" as="geometry">
            <mxRectangle width="30" height="30" as="alternateBounds" />
          </mxGeometry>
        </mxCell>
        <mxCell id="YYgHddTz2j56uieHM2Xs-123" value="load_dt" style="shape=partialRectangle;connectable=0;fillColor=none;top=0;left=0;bottom=0;right=0;align=left;spacingLeft=6;overflow=hidden;whiteSpace=wrap;html=1;" vertex="1" parent="YYgHddTz2j56uieHM2Xs-121">
          <mxGeometry x="30" width="170" height="30" as="geometry">
            <mxRectangle width="170" height="30" as="alternateBounds" />
          </mxGeometry>
        </mxCell>
        <mxCell id="YYgHddTz2j56uieHM2Xs-124" style="shape=tableRow;horizontal=0;startSize=0;swimlaneHead=0;swimlaneBody=0;fillColor=none;collapsible=0;dropTarget=0;points=[[0,0.5],[1,0.5]];portConstraint=eastwest;top=0;left=0;right=0;bottom=0;" vertex="1" parent="YYgHddTz2j56uieHM2Xs-111">
          <mxGeometry y="150" width="200" height="30" as="geometry" />
        </mxCell>
        <mxCell id="YYgHddTz2j56uieHM2Xs-125" style="shape=partialRectangle;connectable=0;fillColor=none;top=0;left=0;bottom=0;right=0;editable=1;overflow=hidden;whiteSpace=wrap;html=1;" vertex="1" parent="YYgHddTz2j56uieHM2Xs-124">
          <mxGeometry width="30" height="30" as="geometry">
            <mxRectangle width="30" height="30" as="alternateBounds" />
          </mxGeometry>
        </mxCell>
        <mxCell id="YYgHddTz2j56uieHM2Xs-126" value="source" style="shape=partialRectangle;connectable=0;fillColor=none;top=0;left=0;bottom=0;right=0;align=left;spacingLeft=6;overflow=hidden;whiteSpace=wrap;html=1;" vertex="1" parent="YYgHddTz2j56uieHM2Xs-124">
          <mxGeometry x="30" width="170" height="30" as="geometry">
            <mxRectangle width="170" height="30" as="alternateBounds" />
          </mxGeometry>
        </mxCell>
        <mxCell id="YYgHddTz2j56uieHM2Xs-127" value="&lt;span style=&quot;font-weight: 400; text-wrap: wrap;&quot;&gt;Sat&amp;nbsp;&lt;/span&gt;&lt;div&gt;&lt;span style=&quot;font-weight: 400; text-wrap: wrap;&quot;&gt;(sat_category_product)&lt;/span&gt;&lt;/div&gt;" style="shape=table;startSize=30;container=1;collapsible=1;childLayout=tableLayout;fixedRows=1;rowLines=0;fontStyle=1;align=center;resizeLast=1;html=1;fillColor=#60a917;strokeColor=#2D7600;fontColor=#ffffff;" vertex="1" parent="YYgHddTz2j56uieHM2Xs-55">
          <mxGeometry x="350" y="20" width="200" height="150" as="geometry">
            <mxRectangle x="960" y="1000" width="180" height="30" as="alternateBounds" />
          </mxGeometry>
        </mxCell>
        <mxCell id="YYgHddTz2j56uieHM2Xs-128" value="" style="shape=tableRow;horizontal=0;startSize=0;swimlaneHead=0;swimlaneBody=0;fillColor=none;collapsible=0;dropTarget=0;points=[[0,0.5],[1,0.5]];portConstraint=eastwest;top=0;left=0;right=0;bottom=1;" vertex="1" parent="YYgHddTz2j56uieHM2Xs-127">
          <mxGeometry y="30" width="200" height="30" as="geometry" />
        </mxCell>
        <mxCell id="YYgHddTz2j56uieHM2Xs-129" value="PK" style="shape=partialRectangle;connectable=0;fillColor=none;top=0;left=0;bottom=0;right=0;fontStyle=1;overflow=hidden;whiteSpace=wrap;html=1;" vertex="1" parent="YYgHddTz2j56uieHM2Xs-128">
          <mxGeometry width="30" height="30" as="geometry">
            <mxRectangle width="30" height="30" as="alternateBounds" />
          </mxGeometry>
        </mxCell>
        <mxCell id="YYgHddTz2j56uieHM2Xs-130" value="hk_category_product_id" style="shape=partialRectangle;connectable=0;fillColor=none;top=0;left=0;bottom=0;right=0;align=left;spacingLeft=6;fontStyle=5;overflow=hidden;whiteSpace=wrap;html=1;" vertex="1" parent="YYgHddTz2j56uieHM2Xs-128">
          <mxGeometry x="30" width="170" height="30" as="geometry">
            <mxRectangle width="170" height="30" as="alternateBounds" />
          </mxGeometry>
        </mxCell>
        <mxCell id="YYgHddTz2j56uieHM2Xs-131" value="" style="shape=tableRow;horizontal=0;startSize=0;swimlaneHead=0;swimlaneBody=0;fillColor=none;collapsible=0;dropTarget=0;points=[[0,0.5],[1,0.5]];portConstraint=eastwest;top=0;left=0;right=0;bottom=0;" vertex="1" parent="YYgHddTz2j56uieHM2Xs-127">
          <mxGeometry y="60" width="200" height="30" as="geometry" />
        </mxCell>
        <mxCell id="YYgHddTz2j56uieHM2Xs-132" value="" style="shape=partialRectangle;connectable=0;fillColor=none;top=0;left=0;bottom=0;right=0;editable=1;overflow=hidden;whiteSpace=wrap;html=1;" vertex="1" parent="YYgHddTz2j56uieHM2Xs-131">
          <mxGeometry width="30" height="30" as="geometry">
            <mxRectangle width="30" height="30" as="alternateBounds" />
          </mxGeometry>
        </mxCell>
        <mxCell id="YYgHddTz2j56uieHM2Xs-133" value="&lt;div style=&quot;text-align: center;&quot;&gt;&lt;span style=&quot;background-color: transparent; color: light-dark(rgb(0, 0, 0), rgb(255, 255, 255));&quot;&gt;date_from&lt;/span&gt;&lt;/div&gt;" style="shape=partialRectangle;connectable=0;fillColor=none;top=0;left=0;bottom=0;right=0;align=left;spacingLeft=6;overflow=hidden;whiteSpace=wrap;html=1;" vertex="1" parent="YYgHddTz2j56uieHM2Xs-131">
          <mxGeometry x="30" width="170" height="30" as="geometry">
            <mxRectangle width="170" height="30" as="alternateBounds" />
          </mxGeometry>
        </mxCell>
        <mxCell id="YYgHddTz2j56uieHM2Xs-134" style="shape=tableRow;horizontal=0;startSize=0;swimlaneHead=0;swimlaneBody=0;fillColor=none;collapsible=0;dropTarget=0;points=[[0,0.5],[1,0.5]];portConstraint=eastwest;top=0;left=0;right=0;bottom=0;" vertex="1" parent="YYgHddTz2j56uieHM2Xs-127">
          <mxGeometry y="90" width="200" height="30" as="geometry" />
        </mxCell>
        <mxCell id="YYgHddTz2j56uieHM2Xs-135" style="shape=partialRectangle;connectable=0;fillColor=none;top=0;left=0;bottom=0;right=0;editable=1;overflow=hidden;whiteSpace=wrap;html=1;" vertex="1" parent="YYgHddTz2j56uieHM2Xs-134">
          <mxGeometry width="30" height="30" as="geometry">
            <mxRectangle width="30" height="30" as="alternateBounds" />
          </mxGeometry>
        </mxCell>
        <mxCell id="YYgHddTz2j56uieHM2Xs-136" value="load_dt" style="shape=partialRectangle;connectable=0;fillColor=none;top=0;left=0;bottom=0;right=0;align=left;spacingLeft=6;overflow=hidden;whiteSpace=wrap;html=1;" vertex="1" parent="YYgHddTz2j56uieHM2Xs-134">
          <mxGeometry x="30" width="170" height="30" as="geometry">
            <mxRectangle width="170" height="30" as="alternateBounds" />
          </mxGeometry>
        </mxCell>
        <mxCell id="YYgHddTz2j56uieHM2Xs-137" style="shape=tableRow;horizontal=0;startSize=0;swimlaneHead=0;swimlaneBody=0;fillColor=none;collapsible=0;dropTarget=0;points=[[0,0.5],[1,0.5]];portConstraint=eastwest;top=0;left=0;right=0;bottom=0;" vertex="1" parent="YYgHddTz2j56uieHM2Xs-127">
          <mxGeometry y="120" width="200" height="30" as="geometry" />
        </mxCell>
        <mxCell id="YYgHddTz2j56uieHM2Xs-138" style="shape=partialRectangle;connectable=0;fillColor=none;top=0;left=0;bottom=0;right=0;editable=1;overflow=hidden;whiteSpace=wrap;html=1;" vertex="1" parent="YYgHddTz2j56uieHM2Xs-137">
          <mxGeometry width="30" height="30" as="geometry">
            <mxRectangle width="30" height="30" as="alternateBounds" />
          </mxGeometry>
        </mxCell>
        <mxCell id="YYgHddTz2j56uieHM2Xs-139" value="source" style="shape=partialRectangle;connectable=0;fillColor=none;top=0;left=0;bottom=0;right=0;align=left;spacingLeft=6;overflow=hidden;whiteSpace=wrap;html=1;" vertex="1" parent="YYgHddTz2j56uieHM2Xs-137">
          <mxGeometry x="30" width="170" height="30" as="geometry">
            <mxRectangle width="170" height="30" as="alternateBounds" />
          </mxGeometry>
        </mxCell>
        <mxCell id="YYgHddTz2j56uieHM2Xs-140" value="" style="edgeStyle=orthogonalEdgeStyle;rounded=0;orthogonalLoop=1;jettySize=auto;html=1;jumpStyle=gap;flowAnimation=0;" edge="1" parent="YYgHddTz2j56uieHM2Xs-55" source="YYgHddTz2j56uieHM2Xs-128" target="YYgHddTz2j56uieHM2Xs-112">
          <mxGeometry relative="1" as="geometry">
            <mxPoint x="140" y="-61" as="sourcePoint" />
            <mxPoint x="220" y="219" as="targetPoint" />
            <Array as="points">
              <mxPoint x="570" y="65" />
              <mxPoint x="570" y="274" />
            </Array>
          </mxGeometry>
        </mxCell>
        <mxCell id="YYgHddTz2j56uieHM2Xs-141" value="" style="edgeStyle=orthogonalEdgeStyle;rounded=0;orthogonalLoop=1;jettySize=auto;html=1;jumpStyle=gap;flowAnimation=0;" edge="1" parent="YYgHddTz2j56uieHM2Xs-55" source="YYgHddTz2j56uieHM2Xs-99" target="YYgHddTz2j56uieHM2Xs-118">
          <mxGeometry relative="1" as="geometry">
            <mxPoint x="560" y="75" as="sourcePoint" />
            <mxPoint x="560" y="284" as="targetPoint" />
            <Array as="points">
              <mxPoint x="580" y="255" />
              <mxPoint x="580" y="320" />
            </Array>
          </mxGeometry>
        </mxCell>
        <mxCell id="YYgHddTz2j56uieHM2Xs-142" value="" style="edgeStyle=orthogonalEdgeStyle;rounded=0;orthogonalLoop=1;jettySize=auto;html=1;jumpStyle=gap;flowAnimation=0;" edge="1" parent="YYgHddTz2j56uieHM2Xs-55" source="YYgHddTz2j56uieHM2Xs-70" target="YYgHddTz2j56uieHM2Xs-115">
          <mxGeometry relative="1" as="geometry">
            <mxPoint x="620" y="265" as="sourcePoint" />
            <mxPoint x="560" y="330" as="targetPoint" />
            <Array as="points">
              <mxPoint x="300" y="265" />
              <mxPoint x="300" y="304" />
            </Array>
          </mxGeometry>
        </mxCell>
        <mxCell id="YYgHddTz2j56uieHM2Xs-143" value="&lt;span style=&quot;font-weight: 400; text-wrap: wrap;&quot;&gt;Sat&amp;nbsp;&lt;/span&gt;&lt;div&gt;&lt;span style=&quot;font-weight: 400; text-wrap: wrap;&quot;&gt;(sat_product)&lt;/span&gt;&lt;/div&gt;" style="shape=table;startSize=30;container=1;collapsible=1;childLayout=tableLayout;fixedRows=1;rowLines=0;fontStyle=1;align=center;resizeLast=1;html=1;fillColor=#60a917;strokeColor=#2D7600;fontColor=#ffffff;" vertex="1" parent="YYgHddTz2j56uieHM2Xs-55">
          <mxGeometry x="610" y="20" width="200" height="150" as="geometry">
            <mxRectangle x="960" y="1000" width="180" height="30" as="alternateBounds" />
          </mxGeometry>
        </mxCell>
        <mxCell id="YYgHddTz2j56uieHM2Xs-144" value="" style="shape=tableRow;horizontal=0;startSize=0;swimlaneHead=0;swimlaneBody=0;fillColor=none;collapsible=0;dropTarget=0;points=[[0,0.5],[1,0.5]];portConstraint=eastwest;top=0;left=0;right=0;bottom=1;" vertex="1" parent="YYgHddTz2j56uieHM2Xs-143">
          <mxGeometry y="30" width="200" height="30" as="geometry" />
        </mxCell>
        <mxCell id="YYgHddTz2j56uieHM2Xs-145" value="PK" style="shape=partialRectangle;connectable=0;fillColor=none;top=0;left=0;bottom=0;right=0;fontStyle=1;overflow=hidden;whiteSpace=wrap;html=1;" vertex="1" parent="YYgHddTz2j56uieHM2Xs-144">
          <mxGeometry width="30" height="30" as="geometry">
            <mxRectangle width="30" height="30" as="alternateBounds" />
          </mxGeometry>
        </mxCell>
        <mxCell id="YYgHddTz2j56uieHM2Xs-146" value="hk_product_id" style="shape=partialRectangle;connectable=0;fillColor=none;top=0;left=0;bottom=0;right=0;align=left;spacingLeft=6;fontStyle=5;overflow=hidden;whiteSpace=wrap;html=1;" vertex="1" parent="YYgHddTz2j56uieHM2Xs-144">
          <mxGeometry x="30" width="170" height="30" as="geometry">
            <mxRectangle width="170" height="30" as="alternateBounds" />
          </mxGeometry>
        </mxCell>
        <mxCell id="YYgHddTz2j56uieHM2Xs-147" value="" style="shape=tableRow;horizontal=0;startSize=0;swimlaneHead=0;swimlaneBody=0;fillColor=none;collapsible=0;dropTarget=0;points=[[0,0.5],[1,0.5]];portConstraint=eastwest;top=0;left=0;right=0;bottom=0;" vertex="1" parent="YYgHddTz2j56uieHM2Xs-143">
          <mxGeometry y="60" width="200" height="30" as="geometry" />
        </mxCell>
        <mxCell id="YYgHddTz2j56uieHM2Xs-148" value="" style="shape=partialRectangle;connectable=0;fillColor=none;top=0;left=0;bottom=0;right=0;editable=1;overflow=hidden;whiteSpace=wrap;html=1;" vertex="1" parent="YYgHddTz2j56uieHM2Xs-147">
          <mxGeometry width="30" height="30" as="geometry">
            <mxRectangle width="30" height="30" as="alternateBounds" />
          </mxGeometry>
        </mxCell>
        <mxCell id="YYgHddTz2j56uieHM2Xs-149" value="&lt;div style=&quot;text-align: center;&quot;&gt;product_name&lt;br&gt;&lt;/div&gt;" style="shape=partialRectangle;connectable=0;fillColor=none;top=0;left=0;bottom=0;right=0;align=left;spacingLeft=6;overflow=hidden;whiteSpace=wrap;html=1;" vertex="1" parent="YYgHddTz2j56uieHM2Xs-147">
          <mxGeometry x="30" width="170" height="30" as="geometry">
            <mxRectangle width="170" height="30" as="alternateBounds" />
          </mxGeometry>
        </mxCell>
        <mxCell id="YYgHddTz2j56uieHM2Xs-150" style="shape=tableRow;horizontal=0;startSize=0;swimlaneHead=0;swimlaneBody=0;fillColor=none;collapsible=0;dropTarget=0;points=[[0,0.5],[1,0.5]];portConstraint=eastwest;top=0;left=0;right=0;bottom=0;" vertex="1" parent="YYgHddTz2j56uieHM2Xs-143">
          <mxGeometry y="90" width="200" height="30" as="geometry" />
        </mxCell>
        <mxCell id="YYgHddTz2j56uieHM2Xs-151" style="shape=partialRectangle;connectable=0;fillColor=none;top=0;left=0;bottom=0;right=0;editable=1;overflow=hidden;whiteSpace=wrap;html=1;" vertex="1" parent="YYgHddTz2j56uieHM2Xs-150">
          <mxGeometry width="30" height="30" as="geometry">
            <mxRectangle width="30" height="30" as="alternateBounds" />
          </mxGeometry>
        </mxCell>
        <mxCell id="YYgHddTz2j56uieHM2Xs-152" value="load_dt" style="shape=partialRectangle;connectable=0;fillColor=none;top=0;left=0;bottom=0;right=0;align=left;spacingLeft=6;overflow=hidden;whiteSpace=wrap;html=1;" vertex="1" parent="YYgHddTz2j56uieHM2Xs-150">
          <mxGeometry x="30" width="170" height="30" as="geometry">
            <mxRectangle width="170" height="30" as="alternateBounds" />
          </mxGeometry>
        </mxCell>
        <mxCell id="YYgHddTz2j56uieHM2Xs-153" style="shape=tableRow;horizontal=0;startSize=0;swimlaneHead=0;swimlaneBody=0;fillColor=none;collapsible=0;dropTarget=0;points=[[0,0.5],[1,0.5]];portConstraint=eastwest;top=0;left=0;right=0;bottom=0;" vertex="1" parent="YYgHddTz2j56uieHM2Xs-143">
          <mxGeometry y="120" width="200" height="30" as="geometry" />
        </mxCell>
        <mxCell id="YYgHddTz2j56uieHM2Xs-154" style="shape=partialRectangle;connectable=0;fillColor=none;top=0;left=0;bottom=0;right=0;editable=1;overflow=hidden;whiteSpace=wrap;html=1;" vertex="1" parent="YYgHddTz2j56uieHM2Xs-153">
          <mxGeometry width="30" height="30" as="geometry">
            <mxRectangle width="30" height="30" as="alternateBounds" />
          </mxGeometry>
        </mxCell>
        <mxCell id="YYgHddTz2j56uieHM2Xs-155" value="source" style="shape=partialRectangle;connectable=0;fillColor=none;top=0;left=0;bottom=0;right=0;align=left;spacingLeft=6;overflow=hidden;whiteSpace=wrap;html=1;" vertex="1" parent="YYgHddTz2j56uieHM2Xs-153">
          <mxGeometry x="30" width="170" height="30" as="geometry">
            <mxRectangle width="170" height="30" as="alternateBounds" />
          </mxGeometry>
        </mxCell>
        <mxCell id="YYgHddTz2j56uieHM2Xs-156" value="" style="edgeStyle=orthogonalEdgeStyle;rounded=0;orthogonalLoop=1;jettySize=auto;html=1;jumpStyle=gap;flowAnimation=0;" edge="1" parent="YYgHddTz2j56uieHM2Xs-55">
          <mxGeometry relative="1" as="geometry">
            <mxPoint x="810" y="135.07692307692287" as="sourcePoint" />
            <mxPoint x="810" y="320" as="targetPoint" />
            <Array as="points">
              <mxPoint x="830" y="135" />
              <mxPoint x="830" y="320" />
            </Array>
          </mxGeometry>
        </mxCell>
        <mxCell id="YYgHddTz2j56uieHM2Xs-157" value="&lt;span style=&quot;font-weight: 400; text-wrap: wrap;&quot;&gt;Sat&amp;nbsp;&lt;/span&gt;&lt;div&gt;&lt;span style=&quot;font-weight: 400; text-wrap: wrap;&quot;&gt;(sat_category)&lt;/span&gt;&lt;/div&gt;" style="shape=table;startSize=30;container=1;collapsible=1;childLayout=tableLayout;fixedRows=1;rowLines=0;fontStyle=1;align=center;resizeLast=1;html=1;fillColor=#60a917;strokeColor=#2D7600;fontColor=#ffffff;" vertex="1" parent="YYgHddTz2j56uieHM2Xs-55">
          <mxGeometry x="70" y="20" width="200" height="150" as="geometry">
            <mxRectangle x="960" y="1000" width="180" height="30" as="alternateBounds" />
          </mxGeometry>
        </mxCell>
        <mxCell id="YYgHddTz2j56uieHM2Xs-158" value="" style="shape=tableRow;horizontal=0;startSize=0;swimlaneHead=0;swimlaneBody=0;fillColor=none;collapsible=0;dropTarget=0;points=[[0,0.5],[1,0.5]];portConstraint=eastwest;top=0;left=0;right=0;bottom=1;" vertex="1" parent="YYgHddTz2j56uieHM2Xs-157">
          <mxGeometry y="30" width="200" height="30" as="geometry" />
        </mxCell>
        <mxCell id="YYgHddTz2j56uieHM2Xs-159" value="PK" style="shape=partialRectangle;connectable=0;fillColor=none;top=0;left=0;bottom=0;right=0;fontStyle=1;overflow=hidden;whiteSpace=wrap;html=1;" vertex="1" parent="YYgHddTz2j56uieHM2Xs-158">
          <mxGeometry width="30" height="30" as="geometry">
            <mxRectangle width="30" height="30" as="alternateBounds" />
          </mxGeometry>
        </mxCell>
        <mxCell id="YYgHddTz2j56uieHM2Xs-160" value="hk_category_id" style="shape=partialRectangle;connectable=0;fillColor=none;top=0;left=0;bottom=0;right=0;align=left;spacingLeft=6;fontStyle=5;overflow=hidden;whiteSpace=wrap;html=1;" vertex="1" parent="YYgHddTz2j56uieHM2Xs-158">
          <mxGeometry x="30" width="170" height="30" as="geometry">
            <mxRectangle width="170" height="30" as="alternateBounds" />
          </mxGeometry>
        </mxCell>
        <mxCell id="YYgHddTz2j56uieHM2Xs-161" value="" style="shape=tableRow;horizontal=0;startSize=0;swimlaneHead=0;swimlaneBody=0;fillColor=none;collapsible=0;dropTarget=0;points=[[0,0.5],[1,0.5]];portConstraint=eastwest;top=0;left=0;right=0;bottom=0;" vertex="1" parent="YYgHddTz2j56uieHM2Xs-157">
          <mxGeometry y="60" width="200" height="30" as="geometry" />
        </mxCell>
        <mxCell id="YYgHddTz2j56uieHM2Xs-162" value="" style="shape=partialRectangle;connectable=0;fillColor=none;top=0;left=0;bottom=0;right=0;editable=1;overflow=hidden;whiteSpace=wrap;html=1;" vertex="1" parent="YYgHddTz2j56uieHM2Xs-161">
          <mxGeometry width="30" height="30" as="geometry">
            <mxRectangle width="30" height="30" as="alternateBounds" />
          </mxGeometry>
        </mxCell>
        <mxCell id="YYgHddTz2j56uieHM2Xs-163" value="&lt;div style=&quot;text-align: center;&quot;&gt;category_name&lt;br&gt;&lt;/div&gt;" style="shape=partialRectangle;connectable=0;fillColor=none;top=0;left=0;bottom=0;right=0;align=left;spacingLeft=6;overflow=hidden;whiteSpace=wrap;html=1;" vertex="1" parent="YYgHddTz2j56uieHM2Xs-161">
          <mxGeometry x="30" width="170" height="30" as="geometry">
            <mxRectangle width="170" height="30" as="alternateBounds" />
          </mxGeometry>
        </mxCell>
        <mxCell id="YYgHddTz2j56uieHM2Xs-164" style="shape=tableRow;horizontal=0;startSize=0;swimlaneHead=0;swimlaneBody=0;fillColor=none;collapsible=0;dropTarget=0;points=[[0,0.5],[1,0.5]];portConstraint=eastwest;top=0;left=0;right=0;bottom=0;" vertex="1" parent="YYgHddTz2j56uieHM2Xs-157">
          <mxGeometry y="90" width="200" height="30" as="geometry" />
        </mxCell>
        <mxCell id="YYgHddTz2j56uieHM2Xs-165" style="shape=partialRectangle;connectable=0;fillColor=none;top=0;left=0;bottom=0;right=0;editable=1;overflow=hidden;whiteSpace=wrap;html=1;" vertex="1" parent="YYgHddTz2j56uieHM2Xs-164">
          <mxGeometry width="30" height="30" as="geometry">
            <mxRectangle width="30" height="30" as="alternateBounds" />
          </mxGeometry>
        </mxCell>
        <mxCell id="YYgHddTz2j56uieHM2Xs-166" value="load_dt" style="shape=partialRectangle;connectable=0;fillColor=none;top=0;left=0;bottom=0;right=0;align=left;spacingLeft=6;overflow=hidden;whiteSpace=wrap;html=1;" vertex="1" parent="YYgHddTz2j56uieHM2Xs-164">
          <mxGeometry x="30" width="170" height="30" as="geometry">
            <mxRectangle width="170" height="30" as="alternateBounds" />
          </mxGeometry>
        </mxCell>
        <mxCell id="YYgHddTz2j56uieHM2Xs-167" style="shape=tableRow;horizontal=0;startSize=0;swimlaneHead=0;swimlaneBody=0;fillColor=none;collapsible=0;dropTarget=0;points=[[0,0.5],[1,0.5]];portConstraint=eastwest;top=0;left=0;right=0;bottom=0;" vertex="1" parent="YYgHddTz2j56uieHM2Xs-157">
          <mxGeometry y="120" width="200" height="30" as="geometry" />
        </mxCell>
        <mxCell id="YYgHddTz2j56uieHM2Xs-168" style="shape=partialRectangle;connectable=0;fillColor=none;top=0;left=0;bottom=0;right=0;editable=1;overflow=hidden;whiteSpace=wrap;html=1;" vertex="1" parent="YYgHddTz2j56uieHM2Xs-167">
          <mxGeometry width="30" height="30" as="geometry">
            <mxRectangle width="30" height="30" as="alternateBounds" />
          </mxGeometry>
        </mxCell>
        <mxCell id="YYgHddTz2j56uieHM2Xs-169" value="source" style="shape=partialRectangle;connectable=0;fillColor=none;top=0;left=0;bottom=0;right=0;align=left;spacingLeft=6;overflow=hidden;whiteSpace=wrap;html=1;" vertex="1" parent="YYgHddTz2j56uieHM2Xs-167">
          <mxGeometry x="30" width="170" height="30" as="geometry">
            <mxRectangle width="170" height="30" as="alternateBounds" />
          </mxGeometry>
        </mxCell>
        <mxCell id="YYgHddTz2j56uieHM2Xs-170" value="" style="edgeStyle=orthogonalEdgeStyle;rounded=0;orthogonalLoop=1;jettySize=auto;html=1;jumpStyle=gap;flowAnimation=0;" edge="1" parent="YYgHddTz2j56uieHM2Xs-55" source="YYgHddTz2j56uieHM2Xs-158" target="YYgHddTz2j56uieHM2Xs-70">
          <mxGeometry relative="1" as="geometry">
            <mxPoint x="79.99999999999977" y="70" as="sourcePoint" />
            <mxPoint x="69.99999999999977" y="285.01449275362324" as="targetPoint" />
            <Array as="points">
              <mxPoint x="50" y="70" />
              <mxPoint x="50" y="270" />
            </Array>
          </mxGeometry>
        </mxCell>
        <mxCell id="YYgHddTz2j56uieHM2Xs-171" value="" style="edgeStyle=orthogonalEdgeStyle;rounded=0;orthogonalLoop=1;jettySize=auto;html=1;jumpStyle=gap;flowAnimation=0;" edge="1" parent="YYgHddTz2j56uieHM2Xs-55" source="YYgHddTz2j56uieHM2Xs-102" target="YYgHddTz2j56uieHM2Xs-89">
          <mxGeometry relative="1" as="geometry">
            <mxPoint x="280" y="490" as="sourcePoint" />
            <mxPoint x="550" y="540" as="targetPoint" />
            <Array as="points">
              <mxPoint x="600" y="280" />
              <mxPoint x="600" y="540" />
            </Array>
          </mxGeometry>
        </mxCell>
        <mxCell id="YYgHddTz2j56uieHM2Xs-172" value="&lt;span style=&quot;font-weight: 400; text-wrap: wrap;&quot;&gt;Sat&amp;nbsp;&lt;/span&gt;&lt;div&gt;&lt;span style=&quot;font-weight: 400; text-wrap: wrap;&quot;&gt;(sat_marketing)&lt;/span&gt;&lt;/div&gt;" style="shape=table;startSize=30;container=1;collapsible=1;childLayout=tableLayout;fixedRows=1;rowLines=0;fontStyle=1;align=center;resizeLast=1;html=1;fillColor=#60a917;strokeColor=#2D7600;fontColor=#ffffff;" vertex="1" parent="YYgHddTz2j56uieHM2Xs-55">
          <mxGeometry x="80" y="440" width="200" height="150" as="geometry">
            <mxRectangle x="960" y="1000" width="180" height="30" as="alternateBounds" />
          </mxGeometry>
        </mxCell>
        <mxCell id="YYgHddTz2j56uieHM2Xs-173" value="" style="shape=tableRow;horizontal=0;startSize=0;swimlaneHead=0;swimlaneBody=0;fillColor=none;collapsible=0;dropTarget=0;points=[[0,0.5],[1,0.5]];portConstraint=eastwest;top=0;left=0;right=0;bottom=1;" vertex="1" parent="YYgHddTz2j56uieHM2Xs-172">
          <mxGeometry y="30" width="200" height="30" as="geometry" />
        </mxCell>
        <mxCell id="YYgHddTz2j56uieHM2Xs-174" value="PK" style="shape=partialRectangle;connectable=0;fillColor=none;top=0;left=0;bottom=0;right=0;fontStyle=1;overflow=hidden;whiteSpace=wrap;html=1;" vertex="1" parent="YYgHddTz2j56uieHM2Xs-173">
          <mxGeometry width="30" height="30" as="geometry">
            <mxRectangle width="30" height="30" as="alternateBounds" />
          </mxGeometry>
        </mxCell>
        <mxCell id="YYgHddTz2j56uieHM2Xs-175" value="hk_marketing_id" style="shape=partialRectangle;connectable=0;fillColor=none;top=0;left=0;bottom=0;right=0;align=left;spacingLeft=6;fontStyle=5;overflow=hidden;whiteSpace=wrap;html=1;" vertex="1" parent="YYgHddTz2j56uieHM2Xs-173">
          <mxGeometry x="30" width="170" height="30" as="geometry">
            <mxRectangle width="170" height="30" as="alternateBounds" />
          </mxGeometry>
        </mxCell>
        <mxCell id="YYgHddTz2j56uieHM2Xs-176" value="" style="shape=tableRow;horizontal=0;startSize=0;swimlaneHead=0;swimlaneBody=0;fillColor=none;collapsible=0;dropTarget=0;points=[[0,0.5],[1,0.5]];portConstraint=eastwest;top=0;left=0;right=0;bottom=0;" vertex="1" parent="YYgHddTz2j56uieHM2Xs-172">
          <mxGeometry y="60" width="200" height="30" as="geometry" />
        </mxCell>
        <mxCell id="YYgHddTz2j56uieHM2Xs-177" value="" style="shape=partialRectangle;connectable=0;fillColor=none;top=0;left=0;bottom=0;right=0;editable=1;overflow=hidden;whiteSpace=wrap;html=1;" vertex="1" parent="YYgHddTz2j56uieHM2Xs-176">
          <mxGeometry width="30" height="30" as="geometry">
            <mxRectangle width="30" height="30" as="alternateBounds" />
          </mxGeometry>
        </mxCell>
        <mxCell id="YYgHddTz2j56uieHM2Xs-178" value="&lt;div style=&quot;text-align: center;&quot;&gt;amount&lt;br&gt;&lt;/div&gt;" style="shape=partialRectangle;connectable=0;fillColor=none;top=0;left=0;bottom=0;right=0;align=left;spacingLeft=6;overflow=hidden;whiteSpace=wrap;html=1;" vertex="1" parent="YYgHddTz2j56uieHM2Xs-176">
          <mxGeometry x="30" width="170" height="30" as="geometry">
            <mxRectangle width="170" height="30" as="alternateBounds" />
          </mxGeometry>
        </mxCell>
        <mxCell id="YYgHddTz2j56uieHM2Xs-179" style="shape=tableRow;horizontal=0;startSize=0;swimlaneHead=0;swimlaneBody=0;fillColor=none;collapsible=0;dropTarget=0;points=[[0,0.5],[1,0.5]];portConstraint=eastwest;top=0;left=0;right=0;bottom=0;" vertex="1" parent="YYgHddTz2j56uieHM2Xs-172">
          <mxGeometry y="90" width="200" height="30" as="geometry" />
        </mxCell>
        <mxCell id="YYgHddTz2j56uieHM2Xs-180" style="shape=partialRectangle;connectable=0;fillColor=none;top=0;left=0;bottom=0;right=0;editable=1;overflow=hidden;whiteSpace=wrap;html=1;" vertex="1" parent="YYgHddTz2j56uieHM2Xs-179">
          <mxGeometry width="30" height="30" as="geometry">
            <mxRectangle width="30" height="30" as="alternateBounds" />
          </mxGeometry>
        </mxCell>
        <mxCell id="YYgHddTz2j56uieHM2Xs-181" value="load_dt" style="shape=partialRectangle;connectable=0;fillColor=none;top=0;left=0;bottom=0;right=0;align=left;spacingLeft=6;overflow=hidden;whiteSpace=wrap;html=1;" vertex="1" parent="YYgHddTz2j56uieHM2Xs-179">
          <mxGeometry x="30" width="170" height="30" as="geometry">
            <mxRectangle width="170" height="30" as="alternateBounds" />
          </mxGeometry>
        </mxCell>
        <mxCell id="YYgHddTz2j56uieHM2Xs-182" style="shape=tableRow;horizontal=0;startSize=0;swimlaneHead=0;swimlaneBody=0;fillColor=none;collapsible=0;dropTarget=0;points=[[0,0.5],[1,0.5]];portConstraint=eastwest;top=0;left=0;right=0;bottom=0;" vertex="1" parent="YYgHddTz2j56uieHM2Xs-172">
          <mxGeometry y="120" width="200" height="30" as="geometry" />
        </mxCell>
        <mxCell id="YYgHddTz2j56uieHM2Xs-183" style="shape=partialRectangle;connectable=0;fillColor=none;top=0;left=0;bottom=0;right=0;editable=1;overflow=hidden;whiteSpace=wrap;html=1;" vertex="1" parent="YYgHddTz2j56uieHM2Xs-182">
          <mxGeometry width="30" height="30" as="geometry">
            <mxRectangle width="30" height="30" as="alternateBounds" />
          </mxGeometry>
        </mxCell>
        <mxCell id="YYgHddTz2j56uieHM2Xs-184" value="source" style="shape=partialRectangle;connectable=0;fillColor=none;top=0;left=0;bottom=0;right=0;align=left;spacingLeft=6;overflow=hidden;whiteSpace=wrap;html=1;" vertex="1" parent="YYgHddTz2j56uieHM2Xs-182">
          <mxGeometry x="30" width="170" height="30" as="geometry">
            <mxRectangle width="170" height="30" as="alternateBounds" />
          </mxGeometry>
        </mxCell>
        <mxCell id="YYgHddTz2j56uieHM2Xs-185" value="" style="edgeStyle=orthogonalEdgeStyle;rounded=0;orthogonalLoop=1;jettySize=auto;html=1;jumpStyle=gap;flowAnimation=0;" edge="1" parent="YYgHddTz2j56uieHM2Xs-55" source="YYgHddTz2j56uieHM2Xs-173" target="YYgHddTz2j56uieHM2Xs-83">
          <mxGeometry relative="1" as="geometry">
            <mxPoint x="560" y="490" as="sourcePoint" />
            <mxPoint x="400" y="490" as="targetPoint" />
            <Array as="points">
              <mxPoint x="300" y="485" />
              <mxPoint x="300" y="485" />
            </Array>
          </mxGeometry>
        </mxCell>
        <mxCell id="YYgHddTz2j56uieHM2Xs-186" value="&lt;span style=&quot;font-weight: 400; text-wrap: wrap;&quot;&gt;Link&amp;nbsp;&lt;/span&gt;&lt;div&gt;&lt;span style=&quot;font-weight: 400; text-wrap: wrap;&quot;&gt;link_sales_product&lt;/span&gt;&lt;/div&gt;" style="shape=table;startSize=30;container=1;collapsible=1;childLayout=tableLayout;fixedRows=1;rowLines=0;fontStyle=1;align=center;resizeLast=1;html=1;fillColor=#a20025;strokeColor=#6F0000;fontColor=#ffffff;" vertex="1" parent="YYgHddTz2j56uieHM2Xs-55">
          <mxGeometry x="890" y="390" width="200" height="180" as="geometry">
            <mxRectangle x="960" y="1000" width="180" height="30" as="alternateBounds" />
          </mxGeometry>
        </mxCell>
        <mxCell id="YYgHddTz2j56uieHM2Xs-187" value="" style="shape=tableRow;horizontal=0;startSize=0;swimlaneHead=0;swimlaneBody=0;fillColor=none;collapsible=0;dropTarget=0;points=[[0,0.5],[1,0.5]];portConstraint=eastwest;top=0;left=0;right=0;bottom=1;" vertex="1" parent="YYgHddTz2j56uieHM2Xs-186">
          <mxGeometry y="30" width="200" height="30" as="geometry" />
        </mxCell>
        <mxCell id="YYgHddTz2j56uieHM2Xs-188" value="PK" style="shape=partialRectangle;connectable=0;fillColor=none;top=0;left=0;bottom=0;right=0;fontStyle=1;overflow=hidden;whiteSpace=wrap;html=1;" vertex="1" parent="YYgHddTz2j56uieHM2Xs-187">
          <mxGeometry width="30" height="30" as="geometry">
            <mxRectangle width="30" height="30" as="alternateBounds" />
          </mxGeometry>
        </mxCell>
        <mxCell id="YYgHddTz2j56uieHM2Xs-189" value="hk_sales_product_id" style="shape=partialRectangle;connectable=0;fillColor=none;top=0;left=0;bottom=0;right=0;align=left;spacingLeft=6;fontStyle=5;overflow=hidden;whiteSpace=wrap;html=1;" vertex="1" parent="YYgHddTz2j56uieHM2Xs-187">
          <mxGeometry x="30" width="170" height="30" as="geometry">
            <mxRectangle width="170" height="30" as="alternateBounds" />
          </mxGeometry>
        </mxCell>
        <mxCell id="YYgHddTz2j56uieHM2Xs-190" value="" style="shape=tableRow;horizontal=0;startSize=0;swimlaneHead=0;swimlaneBody=0;fillColor=none;collapsible=0;dropTarget=0;points=[[0,0.5],[1,0.5]];portConstraint=eastwest;top=0;left=0;right=0;bottom=0;" vertex="1" parent="YYgHddTz2j56uieHM2Xs-186">
          <mxGeometry y="60" width="200" height="30" as="geometry" />
        </mxCell>
        <mxCell id="YYgHddTz2j56uieHM2Xs-191" value="FK" style="shape=partialRectangle;connectable=0;fillColor=none;top=0;left=0;bottom=0;right=0;editable=1;overflow=hidden;whiteSpace=wrap;html=1;" vertex="1" parent="YYgHddTz2j56uieHM2Xs-190">
          <mxGeometry width="30" height="30" as="geometry">
            <mxRectangle width="30" height="30" as="alternateBounds" />
          </mxGeometry>
        </mxCell>
        <mxCell id="YYgHddTz2j56uieHM2Xs-192" value="&lt;span style=&quot;text-align: center;&quot;&gt;hk_sales&lt;/span&gt;_id" style="shape=partialRectangle;connectable=0;fillColor=none;top=0;left=0;bottom=0;right=0;align=left;spacingLeft=6;overflow=hidden;whiteSpace=wrap;html=1;" vertex="1" parent="YYgHddTz2j56uieHM2Xs-190">
          <mxGeometry x="30" width="170" height="30" as="geometry">
            <mxRectangle width="170" height="30" as="alternateBounds" />
          </mxGeometry>
        </mxCell>
        <mxCell id="YYgHddTz2j56uieHM2Xs-193" value="" style="shape=tableRow;horizontal=0;startSize=0;swimlaneHead=0;swimlaneBody=0;fillColor=none;collapsible=0;dropTarget=0;points=[[0,0.5],[1,0.5]];portConstraint=eastwest;top=0;left=0;right=0;bottom=0;" vertex="1" parent="YYgHddTz2j56uieHM2Xs-186">
          <mxGeometry y="90" width="200" height="30" as="geometry" />
        </mxCell>
        <mxCell id="YYgHddTz2j56uieHM2Xs-194" value="FK" style="shape=partialRectangle;connectable=0;fillColor=none;top=0;left=0;bottom=0;right=0;editable=1;overflow=hidden;whiteSpace=wrap;html=1;" vertex="1" parent="YYgHddTz2j56uieHM2Xs-193">
          <mxGeometry width="30" height="30" as="geometry">
            <mxRectangle width="30" height="30" as="alternateBounds" />
          </mxGeometry>
        </mxCell>
        <mxCell id="YYgHddTz2j56uieHM2Xs-195" value="hk_product_id" style="shape=partialRectangle;connectable=0;fillColor=none;top=0;left=0;bottom=0;right=0;align=left;spacingLeft=6;overflow=hidden;whiteSpace=wrap;html=1;" vertex="1" parent="YYgHddTz2j56uieHM2Xs-193">
          <mxGeometry x="30" width="170" height="30" as="geometry">
            <mxRectangle width="170" height="30" as="alternateBounds" />
          </mxGeometry>
        </mxCell>
        <mxCell id="YYgHddTz2j56uieHM2Xs-196" style="shape=tableRow;horizontal=0;startSize=0;swimlaneHead=0;swimlaneBody=0;fillColor=none;collapsible=0;dropTarget=0;points=[[0,0.5],[1,0.5]];portConstraint=eastwest;top=0;left=0;right=0;bottom=0;" vertex="1" parent="YYgHddTz2j56uieHM2Xs-186">
          <mxGeometry y="120" width="200" height="30" as="geometry" />
        </mxCell>
        <mxCell id="YYgHddTz2j56uieHM2Xs-197" style="shape=partialRectangle;connectable=0;fillColor=none;top=0;left=0;bottom=0;right=0;editable=1;overflow=hidden;whiteSpace=wrap;html=1;" vertex="1" parent="YYgHddTz2j56uieHM2Xs-196">
          <mxGeometry width="30" height="30" as="geometry">
            <mxRectangle width="30" height="30" as="alternateBounds" />
          </mxGeometry>
        </mxCell>
        <mxCell id="YYgHddTz2j56uieHM2Xs-198" value="load_dt" style="shape=partialRectangle;connectable=0;fillColor=none;top=0;left=0;bottom=0;right=0;align=left;spacingLeft=6;overflow=hidden;whiteSpace=wrap;html=1;" vertex="1" parent="YYgHddTz2j56uieHM2Xs-196">
          <mxGeometry x="30" width="170" height="30" as="geometry">
            <mxRectangle width="170" height="30" as="alternateBounds" />
          </mxGeometry>
        </mxCell>
        <mxCell id="YYgHddTz2j56uieHM2Xs-199" style="shape=tableRow;horizontal=0;startSize=0;swimlaneHead=0;swimlaneBody=0;fillColor=none;collapsible=0;dropTarget=0;points=[[0,0.5],[1,0.5]];portConstraint=eastwest;top=0;left=0;right=0;bottom=0;" vertex="1" parent="YYgHddTz2j56uieHM2Xs-186">
          <mxGeometry y="150" width="200" height="30" as="geometry" />
        </mxCell>
        <mxCell id="YYgHddTz2j56uieHM2Xs-200" style="shape=partialRectangle;connectable=0;fillColor=none;top=0;left=0;bottom=0;right=0;editable=1;overflow=hidden;whiteSpace=wrap;html=1;" vertex="1" parent="YYgHddTz2j56uieHM2Xs-199">
          <mxGeometry width="30" height="30" as="geometry">
            <mxRectangle width="30" height="30" as="alternateBounds" />
          </mxGeometry>
        </mxCell>
        <mxCell id="YYgHddTz2j56uieHM2Xs-201" value="source" style="shape=partialRectangle;connectable=0;fillColor=none;top=0;left=0;bottom=0;right=0;align=left;spacingLeft=6;overflow=hidden;whiteSpace=wrap;html=1;" vertex="1" parent="YYgHddTz2j56uieHM2Xs-199">
          <mxGeometry x="30" width="170" height="30" as="geometry">
            <mxRectangle width="170" height="30" as="alternateBounds" />
          </mxGeometry>
        </mxCell>
        <mxCell id="YYgHddTz2j56uieHM2Xs-202" value="" style="edgeStyle=orthogonalEdgeStyle;rounded=0;orthogonalLoop=1;jettySize=auto;html=1;jumpStyle=gap;flowAnimation=0;" edge="1" parent="YYgHddTz2j56uieHM2Xs-55" source="YYgHddTz2j56uieHM2Xs-57" target="YYgHddTz2j56uieHM2Xs-190">
          <mxGeometry relative="1" as="geometry">
            <mxPoint x="870" y="438.5" as="sourcePoint" />
            <mxPoint x="810" y="503.5" as="targetPoint" />
            <Array as="points">
              <mxPoint x="870" y="265" />
              <mxPoint x="870" y="460" />
            </Array>
          </mxGeometry>
        </mxCell>
        <mxCell id="YYgHddTz2j56uieHM2Xs-203" value="" style="edgeStyle=orthogonalEdgeStyle;rounded=0;orthogonalLoop=1;jettySize=auto;html=1;jumpStyle=gap;flowAnimation=0;" edge="1" parent="YYgHddTz2j56uieHM2Xs-55" target="YYgHddTz2j56uieHM2Xs-193">
          <mxGeometry relative="1" as="geometry">
            <mxPoint x="810" y="330" as="sourcePoint" />
            <mxPoint x="1060" y="375" as="targetPoint" />
            <Array as="points">
              <mxPoint x="860" y="330" />
              <mxPoint x="860" y="495" />
            </Array>
          </mxGeometry>
        </mxCell>
        <mxCell id="YYgHddTz2j56uieHM2Xs-204" value="&lt;span style=&quot;font-weight: 400; text-wrap: wrap;&quot;&gt;Sat&amp;nbsp;&lt;/span&gt;&lt;div&gt;&lt;span style=&quot;font-weight: 400; text-wrap: wrap;&quot;&gt;(sat_sales)&lt;/span&gt;&lt;/div&gt;" style="shape=table;startSize=30;container=1;collapsible=1;childLayout=tableLayout;fixedRows=1;rowLines=0;fontStyle=1;align=center;resizeLast=1;html=1;fillColor=#60a917;strokeColor=#2D7600;fontColor=#ffffff;" vertex="1" parent="YYgHddTz2j56uieHM2Xs-55">
          <mxGeometry x="890" y="20" width="200" height="150" as="geometry">
            <mxRectangle x="960" y="1000" width="180" height="30" as="alternateBounds" />
          </mxGeometry>
        </mxCell>
        <mxCell id="YYgHddTz2j56uieHM2Xs-205" value="" style="shape=tableRow;horizontal=0;startSize=0;swimlaneHead=0;swimlaneBody=0;fillColor=none;collapsible=0;dropTarget=0;points=[[0,0.5],[1,0.5]];portConstraint=eastwest;top=0;left=0;right=0;bottom=1;" vertex="1" parent="YYgHddTz2j56uieHM2Xs-204">
          <mxGeometry y="30" width="200" height="30" as="geometry" />
        </mxCell>
        <mxCell id="YYgHddTz2j56uieHM2Xs-206" value="PK" style="shape=partialRectangle;connectable=0;fillColor=none;top=0;left=0;bottom=0;right=0;fontStyle=1;overflow=hidden;whiteSpace=wrap;html=1;" vertex="1" parent="YYgHddTz2j56uieHM2Xs-205">
          <mxGeometry width="30" height="30" as="geometry">
            <mxRectangle width="30" height="30" as="alternateBounds" />
          </mxGeometry>
        </mxCell>
        <mxCell id="YYgHddTz2j56uieHM2Xs-207" value="hk_sales_id" style="shape=partialRectangle;connectable=0;fillColor=none;top=0;left=0;bottom=0;right=0;align=left;spacingLeft=6;fontStyle=5;overflow=hidden;whiteSpace=wrap;html=1;" vertex="1" parent="YYgHddTz2j56uieHM2Xs-205">
          <mxGeometry x="30" width="170" height="30" as="geometry">
            <mxRectangle width="170" height="30" as="alternateBounds" />
          </mxGeometry>
        </mxCell>
        <mxCell id="YYgHddTz2j56uieHM2Xs-208" value="" style="shape=tableRow;horizontal=0;startSize=0;swimlaneHead=0;swimlaneBody=0;fillColor=none;collapsible=0;dropTarget=0;points=[[0,0.5],[1,0.5]];portConstraint=eastwest;top=0;left=0;right=0;bottom=0;" vertex="1" parent="YYgHddTz2j56uieHM2Xs-204">
          <mxGeometry y="60" width="200" height="30" as="geometry" />
        </mxCell>
        <mxCell id="YYgHddTz2j56uieHM2Xs-209" value="" style="shape=partialRectangle;connectable=0;fillColor=none;top=0;left=0;bottom=0;right=0;editable=1;overflow=hidden;whiteSpace=wrap;html=1;" vertex="1" parent="YYgHddTz2j56uieHM2Xs-208">
          <mxGeometry width="30" height="30" as="geometry">
            <mxRectangle width="30" height="30" as="alternateBounds" />
          </mxGeometry>
        </mxCell>
        <mxCell id="YYgHddTz2j56uieHM2Xs-210" value="&lt;div style=&quot;text-align: center;&quot;&gt;sale_dt&lt;/div&gt;" style="shape=partialRectangle;connectable=0;fillColor=none;top=0;left=0;bottom=0;right=0;align=left;spacingLeft=6;overflow=hidden;whiteSpace=wrap;html=1;" vertex="1" parent="YYgHddTz2j56uieHM2Xs-208">
          <mxGeometry x="30" width="170" height="30" as="geometry">
            <mxRectangle width="170" height="30" as="alternateBounds" />
          </mxGeometry>
        </mxCell>
        <mxCell id="YYgHddTz2j56uieHM2Xs-211" style="shape=tableRow;horizontal=0;startSize=0;swimlaneHead=0;swimlaneBody=0;fillColor=none;collapsible=0;dropTarget=0;points=[[0,0.5],[1,0.5]];portConstraint=eastwest;top=0;left=0;right=0;bottom=0;" vertex="1" parent="YYgHddTz2j56uieHM2Xs-204">
          <mxGeometry y="90" width="200" height="30" as="geometry" />
        </mxCell>
        <mxCell id="YYgHddTz2j56uieHM2Xs-212" style="shape=partialRectangle;connectable=0;fillColor=none;top=0;left=0;bottom=0;right=0;editable=1;overflow=hidden;whiteSpace=wrap;html=1;" vertex="1" parent="YYgHddTz2j56uieHM2Xs-211">
          <mxGeometry width="30" height="30" as="geometry">
            <mxRectangle width="30" height="30" as="alternateBounds" />
          </mxGeometry>
        </mxCell>
        <mxCell id="YYgHddTz2j56uieHM2Xs-213" value="load_dt" style="shape=partialRectangle;connectable=0;fillColor=none;top=0;left=0;bottom=0;right=0;align=left;spacingLeft=6;overflow=hidden;whiteSpace=wrap;html=1;" vertex="1" parent="YYgHddTz2j56uieHM2Xs-211">
          <mxGeometry x="30" width="170" height="30" as="geometry">
            <mxRectangle width="170" height="30" as="alternateBounds" />
          </mxGeometry>
        </mxCell>
        <mxCell id="YYgHddTz2j56uieHM2Xs-214" style="shape=tableRow;horizontal=0;startSize=0;swimlaneHead=0;swimlaneBody=0;fillColor=none;collapsible=0;dropTarget=0;points=[[0,0.5],[1,0.5]];portConstraint=eastwest;top=0;left=0;right=0;bottom=0;" vertex="1" parent="YYgHddTz2j56uieHM2Xs-204">
          <mxGeometry y="120" width="200" height="30" as="geometry" />
        </mxCell>
        <mxCell id="YYgHddTz2j56uieHM2Xs-215" style="shape=partialRectangle;connectable=0;fillColor=none;top=0;left=0;bottom=0;right=0;editable=1;overflow=hidden;whiteSpace=wrap;html=1;" vertex="1" parent="YYgHddTz2j56uieHM2Xs-214">
          <mxGeometry width="30" height="30" as="geometry">
            <mxRectangle width="30" height="30" as="alternateBounds" />
          </mxGeometry>
        </mxCell>
        <mxCell id="YYgHddTz2j56uieHM2Xs-216" value="source" style="shape=partialRectangle;connectable=0;fillColor=none;top=0;left=0;bottom=0;right=0;align=left;spacingLeft=6;overflow=hidden;whiteSpace=wrap;html=1;" vertex="1" parent="YYgHddTz2j56uieHM2Xs-214">
          <mxGeometry x="30" width="170" height="30" as="geometry">
            <mxRectangle width="170" height="30" as="alternateBounds" />
          </mxGeometry>
        </mxCell>
        <mxCell id="YYgHddTz2j56uieHM2Xs-217" value="" style="edgeStyle=orthogonalEdgeStyle;rounded=0;orthogonalLoop=1;jettySize=auto;html=1;jumpStyle=gap;flowAnimation=0;" edge="1" parent="YYgHddTz2j56uieHM2Xs-55" source="YYgHddTz2j56uieHM2Xs-205" target="YYgHddTz2j56uieHM2Xs-57">
          <mxGeometry relative="1" as="geometry">
            <mxPoint x="890" y="70" as="sourcePoint" />
            <mxPoint x="890" y="265" as="targetPoint" />
            <Array as="points">
              <mxPoint x="1110" y="70" />
              <mxPoint x="1110" y="255" />
            </Array>
          </mxGeometry>
        </mxCell>
        <mxCell id="YYgHddTz2j56uieHM2Xs-218" value="&lt;span style=&quot;font-weight: 400; text-wrap: wrap;&quot;&gt;Sat&amp;nbsp;&lt;/span&gt;&lt;div&gt;&lt;span style=&quot;font-weight: 400; text-wrap: wrap;&quot;&gt;(sat_sales_product)&lt;/span&gt;&lt;/div&gt;" style="shape=table;startSize=30;container=1;collapsible=1;childLayout=tableLayout;fixedRows=1;rowLines=0;fontStyle=1;align=center;resizeLast=1;html=1;fillColor=#60a917;strokeColor=#2D7600;fontColor=#ffffff;" vertex="1" parent="YYgHddTz2j56uieHM2Xs-55">
          <mxGeometry x="620" y="440" width="200" height="150" as="geometry">
            <mxRectangle x="960" y="1000" width="180" height="30" as="alternateBounds" />
          </mxGeometry>
        </mxCell>
        <mxCell id="YYgHddTz2j56uieHM2Xs-219" value="" style="shape=tableRow;horizontal=0;startSize=0;swimlaneHead=0;swimlaneBody=0;fillColor=none;collapsible=0;dropTarget=0;points=[[0,0.5],[1,0.5]];portConstraint=eastwest;top=0;left=0;right=0;bottom=1;" vertex="1" parent="YYgHddTz2j56uieHM2Xs-218">
          <mxGeometry y="30" width="200" height="30" as="geometry" />
        </mxCell>
        <mxCell id="YYgHddTz2j56uieHM2Xs-220" value="PK" style="shape=partialRectangle;connectable=0;fillColor=none;top=0;left=0;bottom=0;right=0;fontStyle=1;overflow=hidden;whiteSpace=wrap;html=1;" vertex="1" parent="YYgHddTz2j56uieHM2Xs-219">
          <mxGeometry width="30" height="30" as="geometry">
            <mxRectangle width="30" height="30" as="alternateBounds" />
          </mxGeometry>
        </mxCell>
        <mxCell id="YYgHddTz2j56uieHM2Xs-221" value="hk_sales_product_id" style="shape=partialRectangle;connectable=0;fillColor=none;top=0;left=0;bottom=0;right=0;align=left;spacingLeft=6;fontStyle=5;overflow=hidden;whiteSpace=wrap;html=1;" vertex="1" parent="YYgHddTz2j56uieHM2Xs-219">
          <mxGeometry x="30" width="170" height="30" as="geometry">
            <mxRectangle width="170" height="30" as="alternateBounds" />
          </mxGeometry>
        </mxCell>
        <mxCell id="YYgHddTz2j56uieHM2Xs-222" value="" style="shape=tableRow;horizontal=0;startSize=0;swimlaneHead=0;swimlaneBody=0;fillColor=none;collapsible=0;dropTarget=0;points=[[0,0.5],[1,0.5]];portConstraint=eastwest;top=0;left=0;right=0;bottom=0;" vertex="1" parent="YYgHddTz2j56uieHM2Xs-218">
          <mxGeometry y="60" width="200" height="30" as="geometry" />
        </mxCell>
        <mxCell id="YYgHddTz2j56uieHM2Xs-223" value="" style="shape=partialRectangle;connectable=0;fillColor=none;top=0;left=0;bottom=0;right=0;editable=1;overflow=hidden;whiteSpace=wrap;html=1;" vertex="1" parent="YYgHddTz2j56uieHM2Xs-222">
          <mxGeometry width="30" height="30" as="geometry">
            <mxRectangle width="30" height="30" as="alternateBounds" />
          </mxGeometry>
        </mxCell>
        <mxCell id="YYgHddTz2j56uieHM2Xs-224" value="&lt;div style=&quot;text-align: center;&quot;&gt;sale_amount&lt;br&gt;&lt;/div&gt;" style="shape=partialRectangle;connectable=0;fillColor=none;top=0;left=0;bottom=0;right=0;align=left;spacingLeft=6;overflow=hidden;whiteSpace=wrap;html=1;" vertex="1" parent="YYgHddTz2j56uieHM2Xs-222">
          <mxGeometry x="30" width="170" height="30" as="geometry">
            <mxRectangle width="170" height="30" as="alternateBounds" />
          </mxGeometry>
        </mxCell>
        <mxCell id="YYgHddTz2j56uieHM2Xs-225" style="shape=tableRow;horizontal=0;startSize=0;swimlaneHead=0;swimlaneBody=0;fillColor=none;collapsible=0;dropTarget=0;points=[[0,0.5],[1,0.5]];portConstraint=eastwest;top=0;left=0;right=0;bottom=0;" vertex="1" parent="YYgHddTz2j56uieHM2Xs-218">
          <mxGeometry y="90" width="200" height="30" as="geometry" />
        </mxCell>
        <mxCell id="YYgHddTz2j56uieHM2Xs-226" style="shape=partialRectangle;connectable=0;fillColor=none;top=0;left=0;bottom=0;right=0;editable=1;overflow=hidden;whiteSpace=wrap;html=1;" vertex="1" parent="YYgHddTz2j56uieHM2Xs-225">
          <mxGeometry width="30" height="30" as="geometry">
            <mxRectangle width="30" height="30" as="alternateBounds" />
          </mxGeometry>
        </mxCell>
        <mxCell id="YYgHddTz2j56uieHM2Xs-227" value="load_dt" style="shape=partialRectangle;connectable=0;fillColor=none;top=0;left=0;bottom=0;right=0;align=left;spacingLeft=6;overflow=hidden;whiteSpace=wrap;html=1;" vertex="1" parent="YYgHddTz2j56uieHM2Xs-225">
          <mxGeometry x="30" width="170" height="30" as="geometry">
            <mxRectangle width="170" height="30" as="alternateBounds" />
          </mxGeometry>
        </mxCell>
        <mxCell id="YYgHddTz2j56uieHM2Xs-228" style="shape=tableRow;horizontal=0;startSize=0;swimlaneHead=0;swimlaneBody=0;fillColor=none;collapsible=0;dropTarget=0;points=[[0,0.5],[1,0.5]];portConstraint=eastwest;top=0;left=0;right=0;bottom=0;" vertex="1" parent="YYgHddTz2j56uieHM2Xs-218">
          <mxGeometry y="120" width="200" height="30" as="geometry" />
        </mxCell>
        <mxCell id="YYgHddTz2j56uieHM2Xs-229" style="shape=partialRectangle;connectable=0;fillColor=none;top=0;left=0;bottom=0;right=0;editable=1;overflow=hidden;whiteSpace=wrap;html=1;" vertex="1" parent="YYgHddTz2j56uieHM2Xs-228">
          <mxGeometry width="30" height="30" as="geometry">
            <mxRectangle width="30" height="30" as="alternateBounds" />
          </mxGeometry>
        </mxCell>
        <mxCell id="YYgHddTz2j56uieHM2Xs-230" value="source" style="shape=partialRectangle;connectable=0;fillColor=none;top=0;left=0;bottom=0;right=0;align=left;spacingLeft=6;overflow=hidden;whiteSpace=wrap;html=1;" vertex="1" parent="YYgHddTz2j56uieHM2Xs-228">
          <mxGeometry x="30" width="170" height="30" as="geometry">
            <mxRectangle width="170" height="30" as="alternateBounds" />
          </mxGeometry>
        </mxCell>
        <mxCell id="YYgHddTz2j56uieHM2Xs-231" value="" style="edgeStyle=orthogonalEdgeStyle;rounded=0;orthogonalLoop=1;jettySize=auto;html=1;jumpStyle=gap;flowAnimation=0;" edge="1" parent="YYgHddTz2j56uieHM2Xs-55" source="YYgHddTz2j56uieHM2Xs-219" target="YYgHddTz2j56uieHM2Xs-187">
          <mxGeometry relative="1" as="geometry">
            <mxPoint x="1140" y="318" as="sourcePoint" />
            <mxPoint x="1120" y="400" as="targetPoint" />
            <Array as="points">
              <mxPoint x="840" y="485" />
              <mxPoint x="840" y="600" />
              <mxPoint x="1110" y="600" />
              <mxPoint x="1110" y="435" />
            </Array>
          </mxGeometry>
        </mxCell>
        <mxCell id="YYgHddTz2j56uieHM2Xs-232" value="" style="edgeStyle=orthogonalEdgeStyle;rounded=0;orthogonalLoop=1;jettySize=auto;html=1;jumpStyle=gap;flowAnimation=0;dashed=1;dashPattern=12 12;" edge="1" parent="YYgHddTz2j56uieHM2Xs-55" source="YYgHddTz2j56uieHM2Xs-208" target="YYgHddTz2j56uieHM2Xs-86">
          <mxGeometry relative="1" as="geometry">
            <mxPoint x="1100" y="80" as="sourcePoint" />
            <mxPoint x="1100" y="265" as="targetPoint" />
            <Array as="points">
              <mxPoint x="1120" y="100" />
              <mxPoint x="1120" y="640" />
              <mxPoint x="340" y="640" />
              <mxPoint x="340" y="515" />
            </Array>
          </mxGeometry>
        </mxCell>
        <mxCell id="YYgHddTz2j56uieHM2Xs-233" style="edgeStyle=orthogonalEdgeStyle;rounded=0;orthogonalLoop=1;jettySize=auto;html=1;dashed=1;dashPattern=12 12;" edge="1" parent="YYgHddTz2j56uieHM2Xs-55" source="YYgHddTz2j56uieHM2Xs-208" target="YYgHddTz2j56uieHM2Xs-131">
          <mxGeometry relative="1" as="geometry">
            <Array as="points">
              <mxPoint x="870" y="95" />
              <mxPoint x="870" y="10" />
              <mxPoint x="330" y="10" />
              <mxPoint x="330" y="95" />
            </Array>
          </mxGeometry>
        </mxCell>
        <mxCell id="YYgHddTz2j56uieHM2Xs-234" value="CDM" style="swimlane;horizontal=0;whiteSpace=wrap;html=1;fillColor=#f5f5f5;fontColor=#333333;strokeColor=#666666;" vertex="1" parent="YYgHddTz2j56uieHM2Xs-17">
          <mxGeometry x="40" y="1000" width="1320" height="250" as="geometry" />
        </mxCell>
        <mxCell id="YYgHddTz2j56uieHM2Xs-235" value="&lt;span style=&quot;font-weight: 400; text-wrap: wrap;&quot;&gt;Таблица с рекламными&lt;/span&gt;&lt;b&gt;&lt;span style=&quot;font-size:12.0pt;mso-bidi-font-size:&lt;br/&gt;11.0pt;line-height:150%;font-family:&amp;quot;Times New Roman&amp;quot;,serif;mso-fareast-font-family:&lt;br/&gt;Calibri;mso-fareast-theme-font:minor-latin;mso-bidi-theme-font:minor-bidi;&lt;br/&gt;mso-ansi-language:RU;mso-fareast-language:EN-US;mso-bidi-language:AR-SA&quot;&gt;&amp;nbsp;&lt;/span&gt;&lt;/b&gt;&lt;span style=&quot;background-color: transparent; color: light-dark(rgb(0, 0, 0), rgb(255, 255, 255)); text-wrap: wrap; font-weight: 400;&quot;&gt;вложениями&lt;/span&gt;&lt;b&gt;&lt;span style=&quot;font-size:12.0pt;mso-bidi-font-size:&lt;br/&gt;11.0pt;line-height:150%;font-family:&amp;quot;Times New Roman&amp;quot;,serif;mso-fareast-font-family:&lt;br/&gt;Calibri;mso-fareast-theme-font:minor-latin;mso-bidi-theme-font:minor-bidi;&lt;br/&gt;mso-ansi-language:RU;mso-fareast-language:EN-US;mso-bidi-language:AR-SA&quot;&gt;&amp;nbsp;&lt;/span&gt;&lt;/b&gt;&lt;span style=&quot;background-color: transparent; color: light-dark(rgb(0, 0, 0), rgb(255, 255, 255)); text-wrap: wrap; font-weight: 400;&quot;&gt;продавцов&lt;/span&gt;&lt;b style=&quot;background-color: transparent; color: light-dark(rgb(0, 0, 0), rgb(255, 255, 255));&quot;&gt;&lt;span style=&quot;font-size:12.0pt;mso-bidi-font-size:&lt;br/&gt;11.0pt;line-height:150%;font-family:&amp;quot;Times New Roman&amp;quot;,serif;mso-fareast-font-family:&lt;br/&gt;Calibri;mso-fareast-theme-font:minor-latin;mso-bidi-theme-font:minor-bidi;&lt;br/&gt;mso-ansi-language:RU;mso-fareast-language:EN-US;mso-bidi-language:AR-SA&quot;&gt;&amp;nbsp;&lt;/span&gt;&lt;/b&gt;&lt;span style=&quot;background-color: transparent; color: light-dark(rgb(0, 0, 0), rgb(255, 255, 255)); text-wrap: wrap; font-weight: 400;&quot;&gt;(cdm_sales_dboard&lt;/span&gt;&lt;span style=&quot;background-color: transparent; color: light-dark(rgb(0, 0, 0), rgb(255, 255, 255)); text-wrap: wrap; font-weight: 400;&quot;&gt;)&lt;/span&gt;" style="shape=table;startSize=40;container=1;collapsible=1;childLayout=tableLayout;fixedRows=1;rowLines=0;fontStyle=1;align=center;resizeLast=1;html=1;fillColor=#e1d5e7;strokeColor=#9673a6;" vertex="1" parent="YYgHddTz2j56uieHM2Xs-234">
          <mxGeometry x="110" y="15" width="340" height="220" as="geometry">
            <mxRectangle x="1420" y="1000" width="180" height="30" as="alternateBounds" />
          </mxGeometry>
        </mxCell>
        <mxCell id="YYgHddTz2j56uieHM2Xs-236" value="" style="shape=tableRow;horizontal=0;startSize=0;swimlaneHead=0;swimlaneBody=0;fillColor=none;collapsible=0;dropTarget=0;points=[[0,0.5],[1,0.5]];portConstraint=eastwest;top=0;left=0;right=0;bottom=1;" vertex="1" parent="YYgHddTz2j56uieHM2Xs-235">
          <mxGeometry y="40" width="340" height="30" as="geometry" />
        </mxCell>
        <mxCell id="YYgHddTz2j56uieHM2Xs-237" value="PK" style="shape=partialRectangle;connectable=0;fillColor=none;top=0;left=0;bottom=0;right=0;fontStyle=1;overflow=hidden;whiteSpace=wrap;html=1;" vertex="1" parent="YYgHddTz2j56uieHM2Xs-236">
          <mxGeometry width="30" height="30" as="geometry">
            <mxRectangle width="30" height="30" as="alternateBounds" />
          </mxGeometry>
        </mxCell>
        <mxCell id="YYgHddTz2j56uieHM2Xs-238" value="Дата" style="shape=partialRectangle;connectable=0;fillColor=none;top=0;left=0;bottom=0;right=0;align=left;spacingLeft=6;fontStyle=5;overflow=hidden;whiteSpace=wrap;html=1;" vertex="1" parent="YYgHddTz2j56uieHM2Xs-236">
          <mxGeometry x="30" width="310" height="30" as="geometry">
            <mxRectangle width="310" height="30" as="alternateBounds" />
          </mxGeometry>
        </mxCell>
        <mxCell id="YYgHddTz2j56uieHM2Xs-239" style="shape=tableRow;horizontal=0;startSize=0;swimlaneHead=0;swimlaneBody=0;fillColor=none;collapsible=0;dropTarget=0;points=[[0,0.5],[1,0.5]];portConstraint=eastwest;top=0;left=0;right=0;bottom=1;" vertex="1" parent="YYgHddTz2j56uieHM2Xs-235">
          <mxGeometry y="70" width="340" height="30" as="geometry" />
        </mxCell>
        <mxCell id="YYgHddTz2j56uieHM2Xs-240" value="&lt;b&gt;PK&lt;/b&gt;" style="shape=partialRectangle;connectable=0;fillColor=none;top=0;left=0;bottom=0;right=0;editable=1;overflow=hidden;whiteSpace=wrap;html=1;" vertex="1" parent="YYgHddTz2j56uieHM2Xs-239">
          <mxGeometry width="30" height="30" as="geometry">
            <mxRectangle width="30" height="30" as="alternateBounds" />
          </mxGeometry>
        </mxCell>
        <mxCell id="YYgHddTz2j56uieHM2Xs-241" value="&lt;b&gt;Название категории&lt;/b&gt;" style="shape=partialRectangle;connectable=0;fillColor=none;top=0;left=0;bottom=0;right=0;align=left;spacingLeft=6;overflow=hidden;whiteSpace=wrap;html=1;" vertex="1" parent="YYgHddTz2j56uieHM2Xs-239">
          <mxGeometry x="30" width="310" height="30" as="geometry">
            <mxRectangle width="310" height="30" as="alternateBounds" />
          </mxGeometry>
        </mxCell>
        <mxCell id="YYgHddTz2j56uieHM2Xs-242" value="" style="shape=tableRow;horizontal=0;startSize=0;swimlaneHead=0;swimlaneBody=0;fillColor=none;collapsible=0;dropTarget=0;points=[[0,0.5],[1,0.5]];portConstraint=eastwest;top=0;left=0;right=0;bottom=1;" vertex="1" parent="YYgHddTz2j56uieHM2Xs-235">
          <mxGeometry y="100" width="340" height="30" as="geometry" />
        </mxCell>
        <mxCell id="YYgHddTz2j56uieHM2Xs-243" value="&lt;b&gt;PK&lt;/b&gt;" style="shape=partialRectangle;connectable=0;fillColor=none;top=0;left=0;bottom=0;right=0;editable=1;overflow=hidden;whiteSpace=wrap;html=1;" vertex="1" parent="YYgHddTz2j56uieHM2Xs-242">
          <mxGeometry width="30" height="30" as="geometry">
            <mxRectangle width="30" height="30" as="alternateBounds" />
          </mxGeometry>
        </mxCell>
        <mxCell id="YYgHddTz2j56uieHM2Xs-244" value="&lt;b&gt;Название_товара&lt;/b&gt;" style="shape=partialRectangle;connectable=0;fillColor=none;top=0;left=0;bottom=0;right=0;align=left;spacingLeft=6;overflow=hidden;whiteSpace=wrap;html=1;" vertex="1" parent="YYgHddTz2j56uieHM2Xs-242">
          <mxGeometry x="30" width="310" height="30" as="geometry">
            <mxRectangle width="310" height="30" as="alternateBounds" />
          </mxGeometry>
        </mxCell>
        <mxCell id="YYgHddTz2j56uieHM2Xs-245" value="" style="shape=tableRow;horizontal=0;startSize=0;swimlaneHead=0;swimlaneBody=0;fillColor=none;collapsible=0;dropTarget=0;points=[[0,0.5],[1,0.5]];portConstraint=eastwest;top=0;left=0;right=0;bottom=0;" vertex="1" parent="YYgHddTz2j56uieHM2Xs-235">
          <mxGeometry y="130" width="340" height="30" as="geometry" />
        </mxCell>
        <mxCell id="YYgHddTz2j56uieHM2Xs-246" value="&lt;b&gt;PK&lt;/b&gt;" style="shape=partialRectangle;connectable=0;fillColor=none;top=0;left=0;bottom=0;right=0;editable=1;overflow=hidden;whiteSpace=wrap;html=1;" vertex="1" parent="YYgHddTz2j56uieHM2Xs-245">
          <mxGeometry width="30" height="30" as="geometry">
            <mxRectangle width="30" height="30" as="alternateBounds" />
          </mxGeometry>
        </mxCell>
        <mxCell id="YYgHddTz2j56uieHM2Xs-247" value="&lt;b&gt;Номер_заказа&lt;/b&gt;" style="shape=partialRectangle;connectable=0;fillColor=none;top=0;left=0;bottom=0;right=0;align=left;spacingLeft=6;overflow=hidden;whiteSpace=wrap;html=1;" vertex="1" parent="YYgHddTz2j56uieHM2Xs-245">
          <mxGeometry x="30" width="310" height="30" as="geometry">
            <mxRectangle width="310" height="30" as="alternateBounds" />
          </mxGeometry>
        </mxCell>
        <mxCell id="YYgHddTz2j56uieHM2Xs-248" style="shape=tableRow;horizontal=0;startSize=0;swimlaneHead=0;swimlaneBody=0;fillColor=none;collapsible=0;dropTarget=0;points=[[0,0.5],[1,0.5]];portConstraint=eastwest;top=0;left=0;right=0;bottom=0;" vertex="1" parent="YYgHddTz2j56uieHM2Xs-235">
          <mxGeometry y="160" width="340" height="30" as="geometry" />
        </mxCell>
        <mxCell id="YYgHddTz2j56uieHM2Xs-249" style="shape=partialRectangle;connectable=0;fillColor=none;top=0;left=0;bottom=0;right=0;editable=1;overflow=hidden;whiteSpace=wrap;html=1;" vertex="1" parent="YYgHddTz2j56uieHM2Xs-248">
          <mxGeometry width="30" height="30" as="geometry">
            <mxRectangle width="30" height="30" as="alternateBounds" />
          </mxGeometry>
        </mxCell>
        <mxCell id="YYgHddTz2j56uieHM2Xs-250" value="Сумма продажи" style="shape=partialRectangle;connectable=0;fillColor=none;top=0;left=0;bottom=0;right=0;align=left;spacingLeft=6;overflow=hidden;whiteSpace=wrap;html=1;" vertex="1" parent="YYgHddTz2j56uieHM2Xs-248">
          <mxGeometry x="30" width="310" height="30" as="geometry">
            <mxRectangle width="310" height="30" as="alternateBounds" />
          </mxGeometry>
        </mxCell>
        <mxCell id="YYgHddTz2j56uieHM2Xs-251" style="shape=tableRow;horizontal=0;startSize=0;swimlaneHead=0;swimlaneBody=0;fillColor=none;collapsible=0;dropTarget=0;points=[[0,0.5],[1,0.5]];portConstraint=eastwest;top=0;left=0;right=0;bottom=0;" vertex="1" parent="YYgHddTz2j56uieHM2Xs-235">
          <mxGeometry y="190" width="340" height="30" as="geometry" />
        </mxCell>
        <mxCell id="YYgHddTz2j56uieHM2Xs-252" style="shape=partialRectangle;connectable=0;fillColor=none;top=0;left=0;bottom=0;right=0;editable=1;overflow=hidden;whiteSpace=wrap;html=1;" vertex="1" parent="YYgHddTz2j56uieHM2Xs-251">
          <mxGeometry width="30" height="30" as="geometry">
            <mxRectangle width="30" height="30" as="alternateBounds" />
          </mxGeometry>
        </mxCell>
        <mxCell id="YYgHddTz2j56uieHM2Xs-253" value="Сумма рекламы" style="shape=partialRectangle;connectable=0;fillColor=none;top=0;left=0;bottom=0;right=0;align=left;spacingLeft=6;overflow=hidden;whiteSpace=wrap;html=1;" vertex="1" parent="YYgHddTz2j56uieHM2Xs-251">
          <mxGeometry x="30" width="310" height="30" as="geometry">
            <mxRectangle width="310" height="30" as="alternateBounds" />
          </mxGeometry>
        </mxCell>
        <mxCell id="YYgHddTz2j56uieHM2Xs-254" value="" style="edgeStyle=orthogonalEdgeStyle;rounded=0;orthogonalLoop=1;jettySize=auto;html=1;jumpStyle=gap;flowAnimation=1;" edge="1" parent="1" source="YYgHddTz2j56uieHM2Xs-1" target="YYgHddTz2j56uieHM2Xs-17">
          <mxGeometry relative="1" as="geometry" />
        </mxCell>
        <mxCell id="YYgHddTz2j56uieHM2Xs-255" value="" style="edgeStyle=orthogonalEdgeStyle;rounded=0;orthogonalLoop=1;jettySize=auto;html=1;flowAnimation=1;" edge="1" parent="1" source="YYgHddTz2j56uieHM2Xs-12" target="YYgHddTz2j56uieHM2Xs-17">
          <mxGeometry relative="1" as="geometry">
            <mxPoint x="470" y="570" as="sourcePoint" />
            <mxPoint x="610" y="470" as="targetPoint" />
          </mxGeometry>
        </mxCell>
        <mxCell id="YYgHddTz2j56uieHM2Xs-256" value="&lt;span style=&quot;font-weight: 400; text-wrap: wrap;&quot;&gt;Справочник товар&lt;/span&gt;&lt;b&gt;&lt;span style=&quot;font-size:12.0pt;mso-bidi-font-size:&lt;br/&gt;11.0pt;line-height:150%;font-family:&amp;quot;Times New Roman&amp;quot;,serif;mso-fareast-font-family:&lt;br/&gt;Calibri;mso-fareast-theme-font:minor-latin;mso-bidi-theme-font:minor-bidi;&lt;br/&gt;mso-ansi-language:RU;mso-fareast-language:EN-US;mso-bidi-language:AR-SA&quot;&gt;&amp;nbsp;&lt;/span&gt;&lt;/b&gt;&lt;span style=&quot;font-weight: 400; text-wrap: wrap;&quot;&gt;-&lt;/span&gt;&lt;b&gt;&lt;span style=&quot;font-size:12.0pt;mso-bidi-font-size:&lt;br/&gt;11.0pt;line-height:150%;font-family:&amp;quot;Times New Roman&amp;quot;,serif;mso-fareast-font-family:&lt;br/&gt;Calibri;mso-fareast-theme-font:minor-latin;mso-bidi-theme-font:minor-bidi;&lt;br/&gt;mso-ansi-language:RU;mso-fareast-language:EN-US;mso-bidi-language:AR-SA&quot;&gt;&amp;nbsp;&lt;/span&gt;&lt;/b&gt;&lt;span style=&quot;font-weight: 400; text-wrap: wrap;&quot;&gt;категория&lt;/span&gt;&lt;span style=&quot;font-weight: 400; text-wrap: wrap;&quot;&gt;&amp;nbsp;&lt;/span&gt;&lt;span style=&quot;font-weight: 400; text-wrap: wrap;&quot;&gt;с&lt;/span&gt;&lt;span style=&quot;font-weight: 400; text-wrap: wrap;&quot;&gt;&amp;nbsp;&lt;/span&gt;&lt;span style=&quot;font-weight: 400; text-wrap: wrap;&quot;&gt;историей&amp;nbsp;&lt;/span&gt;&lt;span style=&quot;font-weight: 400; text-wrap: wrap; background-color: transparent; color: light-dark(rgb(0, 0, 0), rgb(255, 255, 255));&quot;&gt;(hist_category)&lt;/span&gt;" style="shape=table;startSize=40;container=1;collapsible=1;childLayout=tableLayout;fixedRows=1;rowLines=0;fontStyle=1;align=center;resizeLast=1;html=1;fillColor=#e1d5e7;strokeColor=#9673a6;" vertex="1" parent="1">
          <mxGeometry x="1560" y="300" width="360" height="190" as="geometry">
            <mxRectangle x="1420" y="1000" width="180" height="30" as="alternateBounds" />
          </mxGeometry>
        </mxCell>
        <mxCell id="YYgHddTz2j56uieHM2Xs-257" value="" style="shape=tableRow;horizontal=0;startSize=0;swimlaneHead=0;swimlaneBody=0;fillColor=none;collapsible=0;dropTarget=0;points=[[0,0.5],[1,0.5]];portConstraint=eastwest;top=0;left=0;right=0;bottom=1;" vertex="1" parent="YYgHddTz2j56uieHM2Xs-256">
          <mxGeometry y="40" width="360" height="30" as="geometry" />
        </mxCell>
        <mxCell id="YYgHddTz2j56uieHM2Xs-258" value="" style="shape=partialRectangle;connectable=0;fillColor=none;top=0;left=0;bottom=0;right=0;fontStyle=1;overflow=hidden;whiteSpace=wrap;html=1;" vertex="1" parent="YYgHddTz2j56uieHM2Xs-257">
          <mxGeometry width="30" height="30" as="geometry">
            <mxRectangle width="30" height="30" as="alternateBounds" />
          </mxGeometry>
        </mxCell>
        <mxCell id="YYgHddTz2j56uieHM2Xs-259" value="Номер_товара" style="shape=partialRectangle;connectable=0;fillColor=none;top=0;left=0;bottom=0;right=0;align=left;spacingLeft=6;fontStyle=5;overflow=hidden;whiteSpace=wrap;html=1;" vertex="1" parent="YYgHddTz2j56uieHM2Xs-257">
          <mxGeometry x="30" width="330" height="30" as="geometry">
            <mxRectangle width="330" height="30" as="alternateBounds" />
          </mxGeometry>
        </mxCell>
        <mxCell id="YYgHddTz2j56uieHM2Xs-260" value="" style="shape=tableRow;horizontal=0;startSize=0;swimlaneHead=0;swimlaneBody=0;fillColor=none;collapsible=0;dropTarget=0;points=[[0,0.5],[1,0.5]];portConstraint=eastwest;top=0;left=0;right=0;bottom=0;" vertex="1" parent="YYgHddTz2j56uieHM2Xs-256">
          <mxGeometry y="70" width="360" height="30" as="geometry" />
        </mxCell>
        <mxCell id="YYgHddTz2j56uieHM2Xs-261" value="" style="shape=partialRectangle;connectable=0;fillColor=none;top=0;left=0;bottom=0;right=0;editable=1;overflow=hidden;whiteSpace=wrap;html=1;" vertex="1" parent="YYgHddTz2j56uieHM2Xs-260">
          <mxGeometry width="30" height="30" as="geometry">
            <mxRectangle width="30" height="30" as="alternateBounds" />
          </mxGeometry>
        </mxCell>
        <mxCell id="YYgHddTz2j56uieHM2Xs-262" value="Название_товара" style="shape=partialRectangle;connectable=0;fillColor=none;top=0;left=0;bottom=0;right=0;align=left;spacingLeft=6;overflow=hidden;whiteSpace=wrap;html=1;" vertex="1" parent="YYgHddTz2j56uieHM2Xs-260">
          <mxGeometry x="30" width="330" height="30" as="geometry">
            <mxRectangle width="330" height="30" as="alternateBounds" />
          </mxGeometry>
        </mxCell>
        <mxCell id="YYgHddTz2j56uieHM2Xs-263" value="" style="shape=tableRow;horizontal=0;startSize=0;swimlaneHead=0;swimlaneBody=0;fillColor=none;collapsible=0;dropTarget=0;points=[[0,0.5],[1,0.5]];portConstraint=eastwest;top=0;left=0;right=0;bottom=0;" vertex="1" parent="YYgHddTz2j56uieHM2Xs-256">
          <mxGeometry y="100" width="360" height="30" as="geometry" />
        </mxCell>
        <mxCell id="YYgHddTz2j56uieHM2Xs-264" value="" style="shape=partialRectangle;connectable=0;fillColor=none;top=0;left=0;bottom=0;right=0;editable=1;overflow=hidden;whiteSpace=wrap;html=1;" vertex="1" parent="YYgHddTz2j56uieHM2Xs-263">
          <mxGeometry width="30" height="30" as="geometry">
            <mxRectangle width="30" height="30" as="alternateBounds" />
          </mxGeometry>
        </mxCell>
        <mxCell id="YYgHddTz2j56uieHM2Xs-265" value="Категория_товара" style="shape=partialRectangle;connectable=0;fillColor=none;top=0;left=0;bottom=0;right=0;align=left;spacingLeft=6;overflow=hidden;whiteSpace=wrap;html=1;" vertex="1" parent="YYgHddTz2j56uieHM2Xs-263">
          <mxGeometry x="30" width="330" height="30" as="geometry">
            <mxRectangle width="330" height="30" as="alternateBounds" />
          </mxGeometry>
        </mxCell>
        <mxCell id="YYgHddTz2j56uieHM2Xs-266" value="" style="shape=tableRow;horizontal=0;startSize=0;swimlaneHead=0;swimlaneBody=0;fillColor=none;collapsible=0;dropTarget=0;points=[[0,0.5],[1,0.5]];portConstraint=eastwest;top=0;left=0;right=0;bottom=0;" vertex="1" parent="YYgHddTz2j56uieHM2Xs-256">
          <mxGeometry y="130" width="360" height="30" as="geometry" />
        </mxCell>
        <mxCell id="YYgHddTz2j56uieHM2Xs-267" value="" style="shape=partialRectangle;connectable=0;fillColor=none;top=0;left=0;bottom=0;right=0;editable=1;overflow=hidden;whiteSpace=wrap;html=1;" vertex="1" parent="YYgHddTz2j56uieHM2Xs-266">
          <mxGeometry width="30" height="30" as="geometry">
            <mxRectangle width="30" height="30" as="alternateBounds" />
          </mxGeometry>
        </mxCell>
        <mxCell id="YYgHddTz2j56uieHM2Xs-268" value="Название_категории" style="shape=partialRectangle;connectable=0;fillColor=none;top=0;left=0;bottom=0;right=0;align=left;spacingLeft=6;overflow=hidden;whiteSpace=wrap;html=1;" vertex="1" parent="YYgHddTz2j56uieHM2Xs-266">
          <mxGeometry x="30" width="330" height="30" as="geometry">
            <mxRectangle width="330" height="30" as="alternateBounds" />
          </mxGeometry>
        </mxCell>
        <mxCell id="YYgHddTz2j56uieHM2Xs-269" style="shape=tableRow;horizontal=0;startSize=0;swimlaneHead=0;swimlaneBody=0;fillColor=none;collapsible=0;dropTarget=0;points=[[0,0.5],[1,0.5]];portConstraint=eastwest;top=0;left=0;right=0;bottom=0;" vertex="1" parent="YYgHddTz2j56uieHM2Xs-256">
          <mxGeometry y="160" width="360" height="30" as="geometry" />
        </mxCell>
        <mxCell id="YYgHddTz2j56uieHM2Xs-270" value="" style="shape=partialRectangle;connectable=0;fillColor=none;top=0;left=0;bottom=0;right=0;editable=1;overflow=hidden;whiteSpace=wrap;html=1;" vertex="1" parent="YYgHddTz2j56uieHM2Xs-269">
          <mxGeometry width="30" height="30" as="geometry">
            <mxRectangle width="30" height="30" as="alternateBounds" />
          </mxGeometry>
        </mxCell>
        <mxCell id="YYgHddTz2j56uieHM2Xs-271" value="load_dt" style="shape=partialRectangle;connectable=0;fillColor=none;top=0;left=0;bottom=0;right=0;align=left;spacingLeft=6;overflow=hidden;whiteSpace=wrap;html=1;" vertex="1" parent="YYgHddTz2j56uieHM2Xs-269">
          <mxGeometry x="30" width="330" height="30" as="geometry">
            <mxRectangle width="330" height="30" as="alternateBounds" />
          </mxGeometry>
        </mxCell>
      </root>
    </mxGraphModel>
  </diagram>
</mxfile>
